<svg width="24" height="24" viewBox="0 0 24 24" fill="none" xmlns="http://www.w3.org/2000/svg"><path d="M12.003 23.994C5.377 23.994.006 18.622.006 11.997.006 5.37 5.377 0 12.003 0 18.63 0 24 5.371 24 11.997c0 6.625-5.371 11.997-11.997 11.997z" fill="#F7931E"/><path d="M12.016 3.43a4.39 4.39 0 1 1-.001 8.781 4.39 4.39 0 0 1 0-8.781zm0 6.2c1.005 0 1.815-.811 1.815-1.816s-.81-1.815-1.815-1.815-1.816.81-1.816 1.815.81 1.815 1.816 1.815zm-1.552 6.067c-1.758-.358-2.807-1.188-2.864-1.238a1.19 1.19 0 0 1-.182-1.677 1.19 1.19 0 0 1 1.677-.182c.013.006 1.137.873 2.984.873 1.846 0 2.996-.86 3.002-.873a1.196 1.196 0 0 1 1.677.182 1.196 1.196 0 0 1-.182 1.677c-.057.044-1.156.898-2.959 1.25l2.513 2.632a1.193 1.193 0 0 1-.86 2.022c-.315 0-.629-.119-.861-.364l-2.337-2.493-2.575 2.506a1.198 1.198 0 0 1-1.69 0 1.198 1.198 0 0 1 0-1.69l2.657-2.625z" fill="#fff"/></svg>