<svg width="24" height="24" viewBox="0 0 24 24" fill="none" xmlns="http://www.w3.org/2000/svg"><path d="M12 24c6.627 0 12-5.373 12-12S18.627 0 12 0 0 5.373 0 12s5.373 12 12 12z" fill="#157DC3"/><path d="M6.5 7.5H4.75c-.5 0-.6.25-.6.5 0 .45.6 2.75 2.75 5.8 1.45 2.1 3.5 3.2 5.35 3.2 1.1 0 1.25-.25 1.25-.7v-1.55c0-.5.1-.6.45-.6.25 0 .7.15 1.75 1.15 1.2 1.2 1.4 1.7 2.05 1.7h1.75c.5 0 .75-.25.6-.75-.15-.5-.7-1.2-1.5-2.05-.4-.5-1-1-1.2-1.25-.25-.35-.2-.5 0-.8 0 0 2.15-3 2.35-4 .1-.35 0-.65-.55-.65h-1.7c-.45 0-.65.25-.75.5 0 0-.9 2.15-2.15 3.6-.4.4-.6.55-.8.55-.1 0-.25-.15-.25-.5V8.2c0-.45-.15-.65-.5-.65H10.3c-.3 0-.45.2-.45.4 0 .4.65.5.7 1.7v2.6c0 .55-.1.65-.3.65-.6 0-2.05-2.2-2.9-4.65-.25-.55-.4-.75-.85-.75z" fill="#fff"/></svg>