<svg width="24" height="24" viewBox="0 0 24 24" fill="none" xmlns="http://www.w3.org/2000/svg">
<path d="M12 24C18.6274 24 24 18.6274 24 12C24 5.37258 18.6274 0 12 0C5.37258 0 0 5.37258 0 12C0 18.6274 5.37258 24 12 24Z" fill="#157DC3"/>
<path d="M13.3936 24V15.79H16.1482L16.5615 12.5894H13.3936V10.5463C13.3936 9.61998 13.6498 8.98869 14.9796 8.98869L16.673 8.98799V6.12531C16.3802 6.08725 15.3749 6 14.2049 6C11.7618 6 10.0892 7.49127 10.0892 10.2293V12.5894H7.32617V15.79H10.0892V24H13.3936Z" fill="white"/>
</svg>
