<svg width="24" height="24" viewBox="0 0 24 24" fill="none" xmlns="http://www.w3.org/2000/svg">
<path d="M12.0031 23.9937C5.37746 23.9937 0.00627899 18.6225 0.00627899 11.9969C0.00627899 5.37118 5.37746 0 12.0031 0C18.6288 0 24 5.37118 24 11.9969C24 18.6225 18.6288 23.9937 12.0031 23.9937Z" fill="#F7931E"/>
<path d="M12.0158 3.42969C14.4403 3.42969 16.4062 5.39567 16.4062 7.82016C16.4062 10.2447 14.4403 12.2106 12.0158 12.2106C9.59128 12.2106 7.6253 10.2447 7.6253 7.82016C7.6253 5.38938 9.59128 3.42969 12.0158 3.42969ZM12.0158 9.62911C13.0207 9.62911 13.831 8.81885 13.831 7.81388C13.831 6.80891 13.0207 5.99865 12.0158 5.99865C11.0108 5.99865 10.2005 6.80891 10.2005 7.81388C10.2005 8.81885 11.0108 9.62911 12.0158 9.62911Z" fill="white"/>
<path d="M10.4643 15.6965C8.70562 15.3385 7.65668 14.5094 7.60015 14.4592C7.0851 14.0446 7.00345 13.2972 7.418 12.7821C7.83255 12.2671 8.58 12.1854 9.09505 12.6C9.10761 12.6063 10.2319 13.473 12.0786 13.473C13.9252 13.473 15.0746 12.6125 15.0809 12.6C15.596 12.1854 16.3434 12.2734 16.758 12.7821C17.1725 13.2972 17.0846 14.0446 16.5758 14.4592C16.5193 14.5031 15.4201 15.3574 13.6174 15.7091L16.1299 18.3409C16.5884 18.8182 16.5758 19.572 16.0985 20.0305C15.8661 20.2566 15.5708 20.3634 15.2693 20.3634C14.9553 20.3634 14.6412 20.244 14.4088 19.9991L12.0723 17.5055L9.49704 20.0116C9.03224 20.4764 8.27223 20.4764 7.80743 20.0116C7.34263 19.5468 7.34263 18.7868 7.80743 18.322L10.4643 15.6965Z" fill="white"/>
</svg>
