<svg width="24" height="24" viewBox="0 0 24 24" fill="none" xmlns="http://www.w3.org/2000/svg">
<path d="M12 24C18.6274 24 24 18.6274 24 12C24 5.37258 18.6274 0 12 0C5.37258 0 0 5.37258 0 12C0 18.6274 5.37258 24 12 24Z" fill="#157DC3"/>
<path d="M6.50039 7.5H4.75039C4.25039 7.5 4.15039 7.75 4.15039 8C4.15039 8.45 4.75039 10.75 6.90039 13.8C8.35039 15.9 10.4004 17 12.2504 17C13.3504 17 13.5004 16.75 13.5004 16.3V14.75C13.5004 14.25 13.6004 14.15 13.9504 14.15C14.2004 14.15 14.6504 14.3 15.7004 15.3C16.9004 16.5 17.1004 17 17.7504 17H19.5004C20.0004 17 20.2504 16.75 20.1004 16.25C19.9504 15.75 19.4004 15.05 18.6004 14.2C18.2004 13.7 17.6004 13.2 17.4004 12.95C17.1504 12.6 17.2004 12.45 17.4004 12.15C17.4004 12.15 19.5504 9.15 19.7504 8.15C19.8504 7.8 19.7504 7.5 19.2004 7.5H17.5004C17.0504 7.5 16.8504 7.75 16.7504 8C16.7504 8 15.8504 10.15 14.6004 11.6C14.2004 12 14.0004 12.15 13.8004 12.15C13.7004 12.15 13.5504 12 13.5504 11.65V8.2C13.5504 7.75 13.4004 7.55 13.0504 7.55H10.3004C10.0004 7.55 9.85039 7.75 9.85039 7.95C9.85039 8.35 10.5004 8.45 10.5504 9.65V12.25C10.5504 12.8 10.4504 12.9 10.2504 12.9C9.65039 12.9 8.20039 10.7 7.35039 8.25C7.10039 7.7 6.95039 7.5 6.50039 7.5Z" fill="white"/>
</svg>
