<svg width="78" height="77" viewBox="0 0 78 77" fill="none" xmlns="http://www.w3.org/2000/svg">
<path d="M38.9862 76.9728C60.5178 76.9728 77.9725 59.7419 77.9725 38.4864C77.9725 17.231 60.5178 0 38.9862 0C17.4547 0 0 17.231 0 38.4864C0 59.7419 17.4547 76.9728 38.9862 76.9728Z" fill="#FBB700"/>
<path d="M38.9861 75.6961C59.8034 75.6961 76.6792 59.0367 76.6792 38.4862C76.6792 17.9358 59.8034 1.27637 38.9861 1.27637C18.1688 1.27637 1.29297 17.9358 1.29297 38.4862C1.29297 59.0367 18.1688 75.6961 38.9861 75.6961Z" fill="#001489"/>
<path d="M38.9867 64.9948C53.8172 64.9948 65.8396 53.1265 65.8396 38.4862C65.8396 23.8459 53.8172 11.9775 38.9867 11.9775C24.1562 11.9775 12.1338 23.8459 12.1338 38.4862C12.1338 53.1265 24.1562 64.9948 38.9867 64.9948Z" fill="#FBB700"/>
<path d="M38.9862 64.2076C53.376 64.2076 65.0412 52.6919 65.0412 38.4866C65.0412 24.2813 53.376 12.7656 38.9862 12.7656C24.5964 12.7656 12.9312 24.2813 12.9312 38.4866C12.9312 52.6919 24.5964 64.2076 38.9862 64.2076Z" fill="white"/>
<path d="M57.6127 37.4813C57.0625 36.069 55.2191 35.4715 53.4582 36.1233C52.7154 36.3949 52.1376 36.8567 51.7249 37.3727C52.8805 34.1134 57.5852 33.4073 57.5852 30.3925C57.5852 25.3134 50.2667 26.7258 51.3397 30.3925C51.3397 28.7357 54.0085 28.4369 54.0085 30.3925C54.0085 32.348 49.3313 33.6517 49.3313 36.9653C49.3313 40.632 53.0455 40.9579 52.6604 44.3258C52.6053 44.8962 51.9725 45.6567 51.0646 45.6567C45.3694 45.6567 47.4053 38.7579 45.4244 36.6394L45.5344 35.227C46.69 35.9332 49.7164 34.3036 47.7355 31.8048C47.7355 33.027 45.1492 32.9455 45.1492 30.6641C45.1492 27.5406 48.0932 29.1702 48.2582 29.8492C48.1207 28.7085 48.0656 28.0023 48.2582 27.3505C46.6625 27.8665 46.5249 26.9431 46.7175 26.59C46.9376 26.1826 47.2678 25.7209 47.8731 25.7209C48.2032 25.7209 48.4233 25.7752 48.5334 25.8567C48.726 25.9925 48.8635 25.6937 48.836 25.9653C49.0011 25.7209 48.9461 26.0196 49.1111 25.7752C49.2762 25.5307 49.4963 25.232 49.909 24.8517L49.8815 24.2813L50.3492 24.4443L50.7895 23.7381C50.3217 22.7604 49.6614 23.2221 49.1662 21.9999C48.7535 21.8912 42.508 22.5702 42.7006 20.0986C42.1778 20.0986 40.9672 20.3702 41.7376 21.3752C41.1598 21.4567 40.7471 20.8048 39.8667 22.5431C40.9672 22.353 40.3895 23.548 40.3895 23.9011C40.3895 26.1283 37.363 26.1011 37.363 25.0418C36.6477 25.748 37.0604 27.269 38.1609 27.6492C38.1609 27.6492 37.7482 29.2789 36.7027 30.311C35.1619 30.2567 32.7133 29.9851 31.3101 28.6813C30.7048 28.111 30.2096 27.8122 29.7969 27.6492V26.8888C30.4022 26.59 31.0625 26.0739 31.7503 25.232C32.2731 24.5801 32.5757 23.7653 32.4932 22.869C32.4932 22.7604 32.4656 22.6517 32.4381 22.5702C32.4381 22.5431 32.4381 22.5159 32.4106 22.4616C32.3831 22.3801 32.3831 22.3258 32.3556 22.2443C32.3556 22.2172 32.3281 22.19 32.3281 22.1357C32.3006 22.0542 32.2731 21.9999 32.2455 21.9184C32.2455 21.8912 32.218 21.8641 32.218 21.8369C32.1905 21.7554 32.1355 21.6739 32.0805 21.5653C32.0529 21.5381 32.0529 21.511 32.0254 21.4567C31.9979 21.4023 31.9704 21.348 31.9429 21.2937C31.9154 21.2665 31.8879 21.2122 31.8604 21.1851C31.8328 21.1579 31.8053 21.1036 31.7778 21.0764C31.7503 21.0492 31.7228 20.9949 31.6678 20.9406C31.6402 20.9134 31.6127 20.8863 31.5852 20.8591C31.5027 20.7505 31.3926 20.669 31.3101 20.5875L31.2826 20.5604C31.2275 20.506 31.1725 20.4789 31.1175 20.4246C31.09 20.4246 31.09 20.3974 31.0625 20.3974C31.0074 20.3431 30.9249 20.3159 30.8699 20.2616C30.2371 19.8813 29.4392 19.6641 28.6413 19.7455C26.6604 19.9085 25.2022 21.5381 25.3672 23.3851C25.5048 24.8246 26.5778 25.9925 27.981 26.3455C27.4857 26.6171 27.0731 26.7801 26.9905 26.7801C27.018 26.7801 27.018 26.8073 27.0455 26.8073C27.0455 26.8073 27.0455 26.8073 27.0731 26.8073C27.1006 26.8073 27.1281 26.8344 27.1281 26.8344C27.1281 26.8344 27.1281 26.8344 27.1556 26.8344C27.1831 26.8616 27.2106 26.8616 27.2656 26.8888C27.2656 26.8888 27.2656 26.8888 27.2932 26.8888C27.3207 26.9159 27.3482 26.9159 27.4032 26.9431H27.4307C27.5133 26.9702 27.6233 26.9974 27.7334 27.0517C27.7609 27.0517 27.7609 27.0517 27.7884 27.0517C27.8434 27.0517 27.8709 27.0789 27.926 27.0789C27.9535 27.0789 27.9535 27.0789 27.981 27.0789C28.036 27.0789 28.091 27.106 28.1461 27.106C28.1461 27.106 28.1461 27.106 28.1736 27.106V27.5134C28.1461 27.5134 28.1186 27.5134 28.1186 27.5134C27.4857 27.6221 27.0455 27.8122 26.8805 28.3826C26.6879 28.953 26.8805 29.1431 27.1831 29.5505C26.9355 29.9851 26.2752 30.1752 27.1281 31.153C27.0731 31.5332 27.1556 32.1307 27.7059 32.2937C27.8984 32.348 28.036 32.3752 28.2011 32.4023V39.8443C27.6508 40.1431 27.3757 40.4962 27.2381 40.8221C27.2381 40.8221 26.7979 39.8443 26.8254 41.7727C27.3207 41.3925 27.1281 42.2073 27.1281 42.2073C26.4402 43.0764 27.3207 43.0221 27.3207 43.0221C27.8985 42.4517 27.7884 43.2937 27.7884 43.2937C27.7884 44.3258 28.2011 44.7332 28.2286 44.7332V50.3826H27.7334V51.9579H28.6138C28.1186 52.148 27.7884 52.6369 27.8434 53.1801C27.8984 53.8591 28.5313 54.348 29.2466 54.2937C29.9619 54.2394 30.4847 53.6418 30.4297 52.99C30.4022 52.5283 30.072 52.148 29.6593 51.9851H30.4572V50.4097H29.9895V45.3851C30.0995 45.4394 30.2096 45.4665 30.3196 45.4937C30.3746 45.4937 30.4022 45.5209 30.4572 45.5209C30.4847 45.5209 30.5122 45.5209 30.5122 45.5209C30.3746 44.869 30.7873 44.4344 30.7873 44.4344C30.9799 44.1357 31.2826 43.8912 31.6402 43.7283C32.6582 43.2394 34.0339 43.348 34.4466 44.1628C37.0604 43.4838 39.2889 40.9036 39.2889 40.9036L40.582 43.0492C37.8582 43.9455 31.9154 49.0517 36.0424 50.8172C36.0424 51.3332 35.9598 55.1357 33.4836 54.8369C29.9069 54.4023 29.0265 55.869 29.7143 57.4986C29.3842 58.8838 30.4572 59.3455 30.4572 59.3455C30.2921 58.5579 30.6773 57.8789 32.163 57.906C32.163 59.3727 33.0985 59.6172 33.0985 59.6172C33.0985 58.3678 33.9789 57.906 34.7492 57.906C34.7492 58.9381 35.9598 59.3184 35.9598 59.3184C35.9598 59.3184 35.6572 58.1233 37.0053 57.906C40.472 57.3085 37.2254 53.8048 42.4805 52.827C42.4805 52.827 39.8667 52.4468 39.8667 51.0344C39.8667 49.7579 42.2328 48.8616 43.0582 48.8616C44.7365 52.0122 46.5524 52.0394 47.0201 52.0665C47.763 52.8813 47.5154 55.6246 46.4424 55.5702C42.5355 55.353 42.6731 57.7159 43.1133 58.2048C43.0582 59.1283 43.7736 59.6443 43.7736 59.6443C43.7736 58.6665 44.709 58.3949 45.9196 58.4492C45.8646 59.6443 46.635 59.8344 46.635 59.8344C46.6625 58.6394 47.5704 58.4221 48.2032 58.4492C48.1482 59.2912 49.0011 59.5357 49.0011 59.5357C49.0011 59.5357 48.9186 58.4764 50.0466 58.4764C52.2201 58.4764 49.0561 53.8863 53.2932 49.3776C49.5789 51.0616 47.5979 46.8246 47.5979 46.0097C49.4963 48.2097 55.6868 48.6443 55.6868 44.8962C55.6868 41.311 51.6974 39.953 53.5683 38.5949C54.6688 37.8073 56.7873 39.4097 55.5768 41.0665C57.1725 40.5776 58.163 38.8937 57.6127 37.4813ZM33.9238 37.59C32.5207 38.4048 31.5852 39.4369 30.3196 39.8715C30.127 39.953 29.9619 39.953 29.8244 39.953V32.9455C30.1545 32.9727 31.035 33.1085 32.0529 33.5159C33.0709 34.0591 33.0709 35.1999 31.7778 35.4715C32.5757 36.9925 35.382 36.2591 36.0148 35.0097C36.3175 34.9826 36.5651 35.4986 36.8402 36.0147C36.4275 36.2048 35.6297 36.585 33.9238 37.59ZM49.5789 25.9653C49.4138 26.1826 49.2762 26.3727 49.1387 26.5628C49.4963 27.1332 50.1567 27.5134 50.8995 27.432C51.9175 27.3505 52.6604 26.4542 52.5503 25.4492C52.5503 25.4221 52.5503 25.3678 52.5228 25.3406C52.4127 25.8567 51.8074 26.2912 51.0096 26.3727C50.4318 26.427 49.8815 26.2641 49.5789 25.9653Z" fill="#CCCCCC"/>
<path d="M26.9625 21.7552C26.9625 21.7281 26.9901 21.6737 27.0176 21.6466C26.9901 21.6737 26.9901 21.7009 26.9625 21.7552ZM26.4673 51.0071H27.3477C27.2377 51.0614 27.1551 51.1157 27.0451 51.17C27.1276 51.1429 27.2377 51.1157 27.3202 51.1157C27.7604 51.1157 28.1181 51.4688 28.1181 51.9034C28.1181 52.3379 27.7604 52.691 27.3202 52.691C26.9625 52.691 26.6599 52.4737 26.5774 52.1478V52.2293C26.6324 52.9083 27.2652 53.3972 27.9805 53.3429C28.6959 53.2886 29.2186 52.691 29.1636 52.0392C29.1361 51.5775 28.8059 51.1972 28.3932 51.0342H29.1911V49.4861H28.7234V44.4614C28.2557 44.217 27.9805 43.7009 28.0906 43.1577C28.3932 43.1577 28.6684 43.2392 28.8334 43.3478C28.5583 43.9454 29.2461 44.5972 29.2461 44.5972C29.1086 43.9454 29.5213 43.5108 29.5213 43.5108C29.7139 43.212 30.0165 42.9676 30.3742 42.8046C31.3922 42.3157 32.7678 42.4244 33.1805 43.2392C35.7943 42.5602 38.0229 39.9799 38.0229 39.9799L39.316 42.1256C42.3424 42.1256 41.2694 39.8984 41.0768 39.7083C41.7647 39.7083 42.7551 40.2244 42.7551 41.3379C42.7551 44.0812 34.6938 44.4614 34.6938 47.8021C34.6938 49.1873 36.0969 49.7305 36.0969 49.7305C36.0969 52.7725 33.9784 54.5651 32.5477 54.5651C30.2366 54.5651 28.4758 54.1034 28.4758 56.575H29.2737C28.5033 57.3355 29.2186 58.4219 29.2186 58.4219C29.0536 57.6342 29.4387 56.9552 30.9245 56.9824H31.8324C31.2546 57.5528 31.5848 58.4219 31.8599 58.6935C31.8599 57.4441 32.7403 56.9824 33.5107 56.9824C33.7858 56.9824 34.171 56.9824 34.171 56.9824C33.9784 57.1725 34.2811 57.9873 34.6938 58.3947C34.6938 58.3947 34.3911 57.2268 35.7393 56.9824C39.2059 56.3849 35.9594 52.8812 41.2144 51.9034C41.2144 51.9034 38.6006 51.5231 38.6006 50.1108C38.6006 48.8342 40.9668 47.9379 41.7922 47.9379C42.425 47.8565 43.0303 47.8565 43.5805 47.9923C43.8006 50.0293 46.1668 49.9207 46.6895 49.9207C48.698 51.9034 46.1668 55.0812 46.1668 55.0812C43.0853 55.0812 41.8747 55.4886 41.8747 57.2812H42.4525C42.1223 57.6071 42.3149 58.5034 42.535 58.7207C42.535 57.7429 43.4705 57.4713 44.6811 57.5256H45.3139C45.0112 57.8244 45.0663 58.5849 45.3964 58.9108C45.4239 57.7157 46.3044 57.4984 46.9647 57.5256H47.4874C47.2948 57.7157 47.4874 58.3404 47.7626 58.612C47.7626 58.612 47.68 57.5528 48.8081 57.5528C50.9816 57.5528 47.8176 52.9626 52.0546 48.454C48.3403 50.1379 46.3594 45.9009 46.3594 45.0861C48.2578 47.2861 54.4483 47.7207 54.4483 43.9725C54.4483 40.9305 51.5869 39.5182 51.8345 38.3231C51.9171 37.3997 52.6874 36.6935 53.6504 36.6935C54.6684 36.6935 55.4663 37.5083 55.4663 38.4861C55.4663 39.2466 54.9985 39.8984 54.3382 40.1429C56.0991 39.491 57.062 37.8342 56.5393 36.4219C55.989 35.0096 54.1456 34.412 52.3848 35.0639C51.6419 35.3355 51.0641 35.7972 50.6514 36.3133C51.807 33.054 56.5118 32.3478 56.5118 29.333C56.5118 24.254 49.1932 25.6663 50.2663 29.333C50.2663 29.2787 50.2663 29.2244 50.2663 29.17C50.4589 27.1058 54.2007 26.6713 54.2007 29.3873C54.2007 31.696 49.4133 32.9725 49.4133 36.0688C49.4133 39.2466 52.9626 40.0614 52.9626 43.4021C52.9626 43.8096 52.7424 45.5207 50.4038 45.5207C48.1202 45.5207 47.0472 44.2713 46.4144 42.6145C45.2588 40.4145 45.6715 36.9651 44.3784 35.5799L44.4885 34.1676C45.644 34.8737 48.6705 33.2441 46.6895 30.7454C46.6895 31.9676 44.1033 31.8861 44.1033 29.6046C44.1033 26.4812 47.0472 28.1108 47.2123 28.7898C47.0747 27.6491 47.0197 26.9429 47.2123 26.291C45.6165 26.8071 45.479 25.8836 45.6715 25.5305C45.8917 25.1231 46.2218 24.6614 46.8271 24.6614C47.735 24.6614 47.6525 24.9873 47.625 25.4491C47.9551 24.933 48.0652 24.5528 48.8631 23.7923L48.8356 23.2219L49.3033 23.3849L49.7435 22.6787C49.2758 21.7009 48.6155 22.1626 48.1202 20.9404C47.7075 20.8318 42.4525 20.37 42.6451 17.8984C42.1774 17.8984 40.9118 19.4737 41.7647 20.3429C41.7647 20.3429 41.0768 20.3429 40.6641 20.3429C40.0864 20.4244 38.7107 20.017 37.8303 21.7824C39.9763 19.6639 41.3795 24.7157 37.4176 24.7157C36.8398 24.7157 36.317 24.4713 36.2895 24.0639C35.9043 25.775 38.3805 26.3182 38.3805 26.3182C38.3805 26.8342 37.1149 29.5774 36.5096 30.175C36.9223 30.5824 37.0599 33.0268 35.1615 33.0268C35.8493 31.2071 33.8409 29.6589 31.8874 28.6268C31.5297 28.491 31.1996 28.3281 30.8969 28.1379C29.6864 27.5947 28.7234 27.296 28.7234 27.296V26.617V25.8836C29.3287 25.5849 29.989 25.0688 30.6768 24.2268C31.2271 23.575 31.5022 22.7602 31.4197 21.8639C31.4197 21.7552 31.3922 21.6466 31.3647 21.5651C31.3647 21.5379 31.3647 21.5108 31.3372 21.4836C31.3096 21.4021 31.3096 21.3478 31.2821 21.2663C31.2821 21.2392 31.2546 21.212 31.2546 21.1577C31.2271 21.0762 31.1996 21.0219 31.1721 20.9404C31.1721 20.9133 31.1446 20.8861 31.1446 20.8589C31.117 20.7775 31.062 20.696 31.007 20.5873C30.9795 20.5602 30.9795 20.533 30.952 20.4787C30.9245 20.4244 30.8969 20.37 30.8694 20.3157C30.8419 20.2886 30.8144 20.2342 30.7869 20.2071C30.7594 20.1799 30.7319 20.1256 30.7043 20.0984C30.6768 20.0441 30.6493 20.017 30.5943 19.9626C30.5668 19.9355 30.5393 19.9083 30.5118 19.8812C30.4292 19.7725 30.3192 19.691 30.2366 19.6095L30.2091 19.5824C30.1541 19.5281 30.0991 19.5009 30.044 19.4466C30.0165 19.4466 30.0165 19.4194 29.989 19.4194C29.934 19.3651 29.8514 19.3379 29.7964 19.2836C29.1636 18.9034 28.3657 18.6861 27.5678 18.7676C27.4028 18.7947 27.2102 18.8219 27.0451 18.8491C25.862 19.175 25.0366 20.5058 25.0366 22.054C25.0366 23.5207 25.7795 24.77 26.7975 25.2589C26.825 25.2589 26.825 25.2589 26.8525 25.2589C26.3573 25.5305 25.9446 25.6935 25.862 25.6935C25.8895 25.6935 25.8895 25.7207 25.917 25.7207C25.917 25.7207 25.917 25.7207 25.9446 25.7207C25.9721 25.7207 25.9996 25.7478 25.9996 25.7478C25.9996 25.7478 25.9996 25.7478 26.0271 25.7478C26.0546 25.775 26.0821 25.775 26.1372 25.8021C26.1372 25.8021 26.1372 25.8021 26.1647 25.8021C26.1922 25.8293 26.2197 25.8293 26.2747 25.8565H26.3022C26.3848 25.8836 26.4948 25.9108 26.6049 25.9651C26.6324 25.9651 26.6324 25.9651 26.6599 25.9651C26.7149 25.9651 26.7424 25.9923 26.7975 25.9923C26.825 25.9923 26.825 25.9923 26.8525 25.9923C26.9075 25.9923 26.9625 26.0194 27.0176 26.0194C27.0176 26.0194 27.0176 26.0194 27.0451 26.0194C27.4303 26.0466 27.8705 25.9651 27.8705 25.9651V26.8071C27.8155 26.8071 27.2102 26.617 27.0451 26.454C27.0176 26.454 26.9901 26.454 26.9901 26.454C26.3573 26.5626 25.917 26.7528 25.752 27.3231C25.5594 27.8935 25.752 28.0836 26.0546 28.491C25.807 28.9256 25.1467 29.1157 25.9996 30.0935C25.9446 30.4737 26.0271 31.0713 26.5774 31.2342C26.77 31.2886 26.9075 31.3157 27.0726 31.3429C27.4028 31.3429 27.898 31.6145 27.898 32.2935V38.6762C28.2006 38.7034 28.5308 38.7305 28.8059 38.7577V31.7503C29.1361 31.7775 30.0165 31.8861 31.0345 32.3207C31.0345 32.3207 31.062 32.3207 31.062 32.3478C31.1446 32.3478 31.2546 32.375 31.3372 32.4021C32.025 32.6194 32.4377 33.1898 32.2726 33.7058C32.1075 34.2219 31.4197 34.4663 30.7594 34.2762C31.5573 35.7972 34.3636 35.0639 34.9964 33.8145C35.2991 33.7873 35.5467 34.3034 35.8218 34.8194C35.8218 34.8194 36.5372 35.091 38.2705 35.091C38.2705 35.091 31.2271 39.5454 29.1911 39.5454C28.3107 39.5454 26.3848 39.5454 26.3848 40.1972C25.862 40.1972 25.0916 41.0935 25.0916 41.6095C25.5869 41.2293 25.9996 41.2293 25.9996 41.2293C26.4398 41.2293 26.6599 41.3651 26.6599 41.3651C26.4948 41.5281 25.807 42.2886 25.807 42.9133C26.3848 42.3429 26.6599 42.3429 26.6599 42.3429C26.6599 42.3429 27.2652 42.2614 27.4853 42.4787C27.3477 42.6145 27.0726 43.1577 27.0726 43.7824C27.0726 43.7824 27.4303 43.0762 27.898 43.0762V49.7577C27.898 49.975 26.9625 50.1651 26.5774 50.1651L26.4673 51.0071ZM26.7424 30.7997C26.5774 30.7997 26.4948 30.5824 26.4948 30.5009C26.4948 30.4194 26.5498 30.2021 26.7424 30.175C27.1551 30.1478 27.9805 30.3651 27.9805 30.4466C27.953 30.5281 27.1551 30.7725 26.7424 30.7997ZM26.4673 29.6861C26.2197 29.6589 26.1372 29.3602 26.1647 29.2515C26.1647 29.1429 26.3022 28.8441 26.5498 28.8441C27.1276 28.8984 28.2282 29.2787 28.2282 29.3873C28.2006 29.496 27.0451 29.7404 26.4673 29.6861ZM26.3848 28.2737C26.1372 28.2194 26.1096 27.8392 26.1372 27.7305C26.1647 27.6219 26.3573 27.296 26.6049 27.3775C27.2102 27.5404 28.3107 28.1651 28.2832 28.3009C28.2832 28.4095 26.9901 28.4367 26.3848 28.2737ZM28.2557 24.3083C28.3657 24.0639 28.3382 23.7108 28.2832 23.412H28.2557C27.5403 23.412 26.935 22.8416 26.935 22.1083C26.935 21.9725 26.935 21.8639 26.9901 21.7552C27.1551 21.212 27.6504 20.8046 28.2557 20.8046C28.971 20.8046 29.5763 21.375 29.5763 22.1083C29.5488 22.9231 28.971 23.6836 28.2557 24.3083Z" fill="#001489"/>
<path d="M48.0103 25.4498C48.3679 26.0201 49.0282 26.4004 49.7711 26.3189C50.7891 26.2374 51.5319 25.3411 51.4219 24.3362C51.4219 24.309 51.4219 24.2547 51.3944 24.2275C51.2843 24.7436 50.679 25.1782 49.8812 25.2596C49.2759 25.314 48.7531 25.151 48.423 24.8522C48.2854 25.0695 48.1203 25.2596 48.0103 25.4498Z" fill="#FF0000"/>
<path d="M45.5344 22.082L46.1672 22.1092L45.837 22.5438C45.8645 22.5438 45.4243 22.6524 45.5344 22.082ZM44.0211 22.082H44.9291C44.9291 22.082 44.9016 22.8154 45.5619 22.8697L45.4243 23.1141C45.4243 23.087 43.636 22.6252 44.0211 22.082Z" fill="white"/>
<path d="M28.3111 28.3013C28.3386 28.1927 27.2381 27.5408 26.6328 27.3779C26.3852 27.3236 26.1926 27.6223 26.1651 27.731C26.1376 27.8396 26.1651 28.2199 26.4127 28.2742C26.9905 28.4371 28.2836 28.41 28.3111 28.3013ZM28.2011 29.3878C28.2011 29.2791 27.1006 28.8717 26.5228 28.8445C26.2752 28.8174 26.1651 29.1433 26.1376 29.252C26.1376 29.3606 26.2201 29.6865 26.4402 29.6865C27.0455 29.7408 28.2011 29.4964 28.2011 29.3878ZM26.963 26.1013V26.5087C27.1281 26.6717 27.7058 26.8618 27.7884 26.8618V26.0199C27.7609 26.0199 27.3207 26.1285 26.963 26.1013ZM26.7154 30.1754C26.5503 30.1754 26.4677 30.4199 26.4677 30.5013C26.4677 30.5828 26.5503 30.8001 26.7154 30.8001C27.1281 30.7729 27.9259 30.5285 27.9259 30.447C27.9535 30.3655 27.1281 30.1754 26.7154 30.1754ZM25.8625 41.2569C25.1746 42.126 25.6699 42.9137 25.6699 42.9137C25.6699 42.3162 26.3852 41.5285 26.5228 41.3655C26.5503 41.3655 26.3027 41.2569 25.8625 41.2569ZM28.0635 43.1038C27.9535 43.647 28.2286 44.1631 28.6963 44.4075C28.8064 44.4618 28.9164 44.489 29.0265 44.5161C29.0815 44.5161 29.109 44.5433 29.164 44.5433C29.1916 44.5433 29.2191 44.5433 29.2191 44.5433C29.2191 44.5433 28.5312 43.8915 28.8064 43.2939C28.6138 43.1853 28.3386 43.1038 28.0635 43.1038ZM26.7979 25.2594C25.7524 24.7705 25.0371 23.5211 25.0371 22.0544C25.0371 20.5063 25.8625 19.1754 26.9905 18.7408C25.2847 19.1211 24.0741 20.6149 24.2392 22.2989C24.3492 23.7384 25.4222 24.8791 26.7979 25.2594ZM37.8032 21.6742C38.9037 21.4569 39.2889 22.4347 39.2889 22.7878C39.2889 24.0915 38.2434 24.6347 37.3905 24.6347C41.3524 24.6347 39.9492 19.5557 37.8032 21.6742ZM35.1344 32.9458C37.0328 32.9458 36.8953 30.5013 36.4826 30.0939C37.0879 29.4964 38.3535 26.7532 38.3535 26.2371C38.3535 26.2371 35.8498 25.6939 36.2625 23.9828H36.2349C35.5471 24.689 35.9598 26.1828 37.0603 26.5359C37.0603 26.5359 36.6476 28.1655 35.6021 29.1976C34.5841 29.1705 33.1259 29.0347 31.8603 28.5458C33.8138 29.5779 35.8222 31.0989 35.1344 32.9458ZM27.7334 21.1853C28.2286 21.1581 28.6688 21.4841 28.6963 21.9458C28.7238 22.4075 28.3662 22.8149 27.8709 22.8421C27.3757 22.8692 26.9355 22.5433 26.908 22.0816C26.908 22.7878 27.4857 23.3853 28.2286 23.3853H28.2561C28.3111 23.7112 28.3386 24.0371 28.2286 24.2816C28.9439 23.6841 29.5217 22.8964 29.5217 22.0816C29.5217 21.3754 28.9439 20.7779 28.2011 20.7779C27.5958 20.7779 27.1006 21.1853 26.9355 21.7285C27.073 21.4569 27.3757 21.2124 27.7334 21.1853ZM41.7101 20.2618C40.8572 19.4199 42.1228 17.8174 42.5905 17.8174C42.0677 17.8174 39.8667 19.2569 40.6095 20.2618C41.0222 20.2618 41.7101 20.2618 41.7101 20.2618ZM30.6498 34.331C31.3376 34.5482 32.0254 34.2766 32.163 33.7606C32.3281 33.2445 31.8879 32.647 31.2275 32.4569C31.145 32.4297 31.0349 32.4026 30.9524 32.4026C31.9429 32.9729 31.9154 34.0865 30.6498 34.331ZM28.6963 27.2149C28.6963 27.2149 29.6593 27.5137 30.8699 28.0569C30.6222 27.9211 30.4021 27.731 30.2095 27.568C29.6043 26.9976 29.109 26.6989 28.6963 26.5359V27.2149ZM29.054 39.5729C31.09 39.5729 38.1334 35.1186 38.1334 35.1186C36.4 35.1186 35.6847 34.847 35.6847 34.847C35.2995 35.0371 34.4741 35.4445 32.7683 36.4495C31.3651 37.2643 30.4297 38.2964 29.164 38.731C28.9714 38.8124 28.8064 38.8124 28.6688 38.8124C28.3662 38.7853 28.0635 38.7581 27.7609 38.731V32.3482C27.7609 31.6692 27.2656 31.3976 26.9355 31.3976V38.8396C26.3852 39.1384 26.1101 39.4915 25.9725 39.8174C25.9725 39.8174 24.927 39.6816 24.9545 41.61C24.9545 41.0939 25.7249 40.1976 26.2476 40.1976C26.2476 39.5729 28.2011 39.5729 29.054 39.5729ZM46.6349 49.8668C46.1122 49.8668 43.7461 49.9754 43.5259 47.9384C43.0032 47.8297 42.3979 47.8026 41.7376 47.8841C43.4159 51.0347 45.2318 51.0618 45.6995 51.089C46.4424 51.9038 46.1947 54.647 45.1217 54.5927C41.2148 54.3754 41.3524 56.7384 41.7926 57.2273C41.7926 55.4618 43.0032 55.0273 46.0847 55.0273C46.1397 55.0273 48.6434 51.8495 46.6349 49.8668ZM47.4328 57.4717H46.9101C46.855 58.3137 47.708 58.5581 47.708 58.5581C47.4328 58.3137 47.2402 57.689 47.4328 57.4717ZM42.4804 58.6668C42.2603 58.4495 42.0677 57.5532 42.3979 57.2273H41.8201C41.7651 58.1507 42.4804 58.6668 42.4804 58.6668ZM54.1736 29.3063C54.1736 26.6174 50.4318 27.0248 50.2392 29.1161C50.4043 27.5952 52.908 27.3779 52.908 29.2791C52.908 31.2347 48.2307 32.5384 48.2307 35.852C48.2307 39.5186 51.945 39.8445 51.5598 43.2124C51.5048 43.7828 50.872 44.5433 49.964 44.5433C48.0106 44.5433 46.9651 43.7285 46.3598 42.5606C46.9926 44.1902 48.0656 45.4668 50.3492 45.4668C52.7154 45.4668 52.908 43.7557 52.908 43.3483C52.908 40.0075 49.3587 39.1927 49.3587 36.0149C49.3863 32.8915 54.1736 31.6149 54.1736 29.3063ZM26.5228 42.3433C26.5228 43.3754 26.963 43.7828 26.963 43.7828C26.963 43.1581 27.2106 42.6421 27.3757 42.4791C27.1281 42.2618 26.5228 42.3433 26.5228 42.3433ZM53.6233 36.6396C52.6603 36.6396 51.89 37.3458 51.8074 38.2692C51.8625 38.052 52 37.8347 52.3027 37.6174C53.4032 36.8297 55.5217 38.4322 54.3111 40.089C54.9714 39.8174 55.4392 39.1655 55.4392 38.4322C55.4392 37.4273 54.6138 36.6396 53.6233 36.6396ZM45.2868 57.4717H44.654C44.599 58.6668 45.3693 58.8569 45.3693 58.8569C45.0117 58.531 44.9566 57.7976 45.2868 57.4717ZM27.3207 51.1161C27.2106 51.1161 27.1281 51.1433 27.0455 51.1705C26.7429 51.3878 26.5503 51.7408 26.5778 52.1483C26.6879 52.4742 26.963 52.6915 27.3207 52.6915C27.7609 52.6915 28.1185 52.3384 28.1185 51.9038C28.1185 51.4692 27.7609 51.1161 27.3207 51.1161ZM31.7778 56.9013H30.8699C30.8699 58.368 31.8053 58.6124 31.8053 58.6124C31.5302 58.368 31.2 57.4989 31.7778 56.9013ZM34.6392 47.7211C34.6392 44.4075 42.7005 44.0001 42.7005 41.2569C42.7005 40.1433 41.7376 39.6273 41.0222 39.6273C41.2148 39.8174 42.2603 42.0445 39.2614 42.0445C36.5376 42.9408 30.5947 48.047 34.7217 49.8124C34.7217 50.3285 34.6392 54.131 32.163 53.8322C28.5863 53.3976 27.7058 54.8643 28.3937 56.4939C28.3937 54.0223 30.1545 54.4841 32.4656 54.4841C33.8963 54.4841 36.0148 52.6915 36.0148 49.6495C36.0423 49.6495 34.6392 49.1063 34.6392 47.7211ZM27.7609 49.7581V43.0766C27.2931 43.0766 26.9355 43.7828 26.9355 43.7828V49.4865V49.4594H26.4402V50.1655C26.8529 50.1655 27.7609 49.9482 27.7609 49.7581ZM29.164 58.368C29.164 58.368 28.4487 57.2544 29.2191 56.5211H28.4212C28.091 57.8791 29.164 58.368 29.164 58.368ZM34.1439 56.9285C34.1439 56.9285 33.7587 56.9285 33.4836 56.9285C33.4836 57.9606 34.6942 58.3408 34.6942 58.3408C34.254 57.9334 33.9513 57.1186 34.1439 56.9285Z" fill="#6672B8"/>
<path d="M73.8734 45.2216L73.8183 45.0858L73.7633 44.95C73.6257 44.4882 73.3506 43.6191 72.6353 43.592C72.4427 43.592 72.2501 43.6463 72.0575 43.7549C72.085 43.5376 72.03 43.3475 71.9474 43.1845C71.5898 42.587 70.6818 42.75 70.1866 42.8315L70.049 42.8586H69.8839C69.3887 42.8586 68.4808 42.8586 68.2331 43.5105C68.1781 43.6734 68.1506 43.8907 68.2056 44.0808C68.013 43.9994 67.8204 43.9722 67.6278 44.0265C66.94 44.1895 66.8024 45.0858 66.7474 45.5475L66.7199 45.6833L66.6649 45.8191C66.4998 46.2808 66.2247 47.1228 66.7749 47.5845C66.9125 47.6932 67.1051 47.7747 67.3252 47.7747C67.1876 47.9376 67.1051 48.1278 67.0776 48.3179C67.0226 49.0241 67.848 49.4043 68.2882 49.6216L68.4257 49.6759L68.5358 49.7574C68.921 50.0562 69.6638 50.5722 70.2691 50.192C70.4342 50.0833 70.5443 49.9475 70.6268 49.7302C70.7368 49.9204 70.8744 50.0562 71.067 50.1105C71.7273 50.3821 72.3601 49.7302 72.6903 49.3771L72.8003 49.2685L72.9104 49.187C73.3231 48.9154 74.066 48.3722 73.8734 47.6932C73.8183 47.5031 73.7083 47.3401 73.5432 47.2043C73.7633 47.15 73.9284 47.0685 74.066 46.9055C74.5337 46.4438 74.0935 45.6562 73.8734 45.2216Z" fill="white"/>
<path d="M69.6638 45.3843C67.2151 42.9942 69.7188 43.2929 70.0765 43.2658C70.4342 43.2386 72.8278 42.5053 70.8469 45.2757C70.7368 45.2485 70.6268 45.1942 70.4892 45.1942C70.3516 44.7868 70.2141 44.3522 70.2141 44.3522H70.1315C70.1315 44.3522 70.0765 44.7868 69.994 45.2213C69.8839 45.2757 69.7739 45.33 69.6638 45.3843ZM69.9389 47.8831C69.6088 48.2362 69.2236 48.6164 69.2236 48.6164L69.1411 48.5621C69.1411 48.5621 69.3061 48.0732 69.4437 47.6115C69.3336 47.5028 69.2236 47.3942 69.1686 47.2584C65.977 48.3448 68.3432 49.1324 68.6458 49.3226C68.9485 49.5127 70.7643 51.1695 70.2416 47.9374C70.159 47.9374 70.049 47.9102 69.9389 47.8831ZM68.976 46.688C68.976 46.6608 68.976 46.6065 68.976 46.5794C68.5633 46.3892 68.1231 46.1719 68.1231 46.1719L68.1506 46.0905C68.1506 46.0905 68.6183 46.0905 69.086 46.0905C69.1411 45.9547 69.2236 45.8189 69.3061 45.7102C67.2426 42.9942 67.2151 45.4658 67.1326 45.8189C67.05 46.1719 65.977 48.3991 69.0035 46.8781C69.0035 46.7966 69.0035 46.7423 68.976 46.688ZM71.6723 47.0682C71.6173 47.2041 71.5622 47.3399 71.4522 47.4485C71.6723 47.8559 71.9199 48.3176 71.9199 48.3176L71.8374 48.372C71.8374 48.372 71.3971 48.046 71.012 47.7744C70.9019 47.8287 70.7919 47.8559 70.6818 47.8831C70.7643 51.1695 72.2225 49.2139 72.4977 48.9695C72.8003 48.7794 74.9739 47.5843 71.6723 47.0682ZM73.4056 45.2485C73.268 44.9226 72.8003 42.4781 71.2321 45.5201C71.3421 45.6287 71.4522 45.7374 71.5347 45.8732C71.9749 45.7917 72.4426 45.7102 72.4426 45.7102L72.4702 45.7917C72.4702 45.7917 72.0575 46.0905 71.6998 46.3621C71.6998 46.3892 71.7273 46.4436 71.7273 46.4707C71.7273 46.525 71.7273 46.5794 71.7273 46.6337C74.9739 47.5843 73.5432 45.5744 73.4056 45.2485ZM70.2966 45.7645C70.0765 45.7917 69.8839 45.8732 69.7463 46.0633C69.6088 46.2263 69.5262 46.4436 69.5538 46.6608C69.5813 47.0954 69.994 47.4485 70.4342 47.3942C70.6543 47.367 70.8469 47.2855 70.9844 47.0954C71.122 46.9324 71.2046 46.7152 71.177 46.4979C71.1495 46.0633 70.7643 45.7102 70.2966 45.7645Z" fill="#FF0000"/>
<path d="M66.4999 30.9625C66.8576 32.8909 68.7285 34.1946 70.6819 33.8415C72.6354 33.4884 73.956 31.6415 73.5983 29.7131C73.2407 27.7847 71.3698 26.481 69.4163 26.8341C67.4629 27.16 66.1422 29.007 66.4999 30.9625Z" fill="white"/>
<path d="M68.5912 29.5234C68.6187 29.4962 68.6737 29.4691 68.7562 29.4148C69.0589 29.2246 69.6367 28.8444 69.6367 28.8444C69.7192 28.7901 69.8017 28.7357 69.8843 28.6814C70.1319 28.5185 70.3795 28.3555 70.5996 28.2469C70.6822 28.1925 70.7647 28.1654 70.8472 28.111C71.2049 27.9481 71.5351 27.8394 71.9203 27.8123C72.2229 28.0296 72.4705 28.3012 72.6906 28.5999C71.7827 28.9259 70.9298 29.4419 69.0864 30.5555C68.9764 30.311 68.6187 29.5777 68.5912 29.5234ZM73.1033 29.632C73.0483 29.3333 72.9382 29.0888 72.8007 28.8172C71.8927 29.1431 71.0398 29.632 69.1689 30.7728C69.224 30.9357 69.389 31.316 69.4441 31.4246C71.2324 30.9901 72.6081 30.311 73.1033 29.632ZM70.3795 28.0567C69.7467 27.5678 68.9488 27.5678 68.3711 27.6765C68.0409 27.8666 67.7658 28.1382 67.5457 28.4098C68.151 28.1925 68.9488 28.0839 69.6642 28.4913C69.9118 28.3555 70.1319 28.1925 70.3795 28.0567ZM73.1308 31.0172C73.2134 30.6913 73.2134 30.3382 73.1859 29.958C72.4705 30.7456 70.9298 31.3431 69.5541 31.6691C69.6642 31.9407 69.9668 32.674 69.9943 32.7012C70.0494 32.674 70.8472 32.4839 71.2049 32.3752C71.315 32.3481 71.3975 32.3209 71.5076 32.2666C71.7277 32.1851 71.9478 32.0765 72.1679 31.9678C72.2779 31.9135 72.3605 31.8592 72.4705 31.7777C72.7181 31.6148 72.9658 31.3431 73.1308 31.0172ZM69.4991 33.4073C69.8017 33.4617 70.1319 33.4617 70.4621 33.4345C70.7097 33.2444 70.9298 33.0271 71.0673 32.7012C70.7647 32.7827 70.4896 32.8641 70.2144 32.9456L69.9118 33.0271C69.9118 32.9999 69.7192 33.2444 69.4991 33.4073ZM67.5181 29.3333C67.6007 29.3333 67.6832 29.3333 67.7933 29.3061C67.9584 29.3061 68.151 29.3061 68.3711 29.3333L69.389 28.6814C68.6462 28.3283 67.8208 28.5728 67.2705 28.8172C67.1605 29.0073 67.0779 29.2246 66.9954 29.4419C67.1605 29.3876 67.3256 29.3604 67.5181 29.3333ZM66.9404 29.7135C66.8578 30.0938 66.8578 30.474 66.9129 30.8543C67.133 32.0222 67.9584 32.9185 69.0039 33.2715C68.3435 32.4839 67.5457 31.2345 67.5181 29.6049C67.298 29.632 67.1055 29.6864 66.9404 29.7135ZM71.5351 27.595C70.9298 27.2691 70.2144 27.1333 69.4716 27.2691C69.334 27.2962 69.1965 27.3234 69.0589 27.3777C69.5816 27.3777 70.1319 27.5407 70.5996 27.9481C70.9298 27.758 71.2049 27.6493 71.5351 27.595ZM67.7933 29.6049C67.8208 31.2345 68.6462 32.4839 69.3065 33.2444C69.4441 33.1357 69.6091 32.9999 69.7192 32.8641L69.279 31.7777L69.1689 31.5333C69.1689 31.5333 69.0039 31.0987 68.9488 30.9629C68.9213 30.8814 68.8663 30.7999 68.8388 30.7185C68.7287 30.4469 68.5912 30.1481 68.3435 29.6592C68.151 29.6049 67.9584 29.5777 67.7933 29.6049ZM70.9848 33.3259C71.2599 33.2444 71.5351 33.1357 71.7552 32.9728C71.8652 32.7827 71.9753 32.5925 72.0578 32.3481C71.8377 32.4567 71.6176 32.5382 71.3975 32.6197C71.315 32.8913 71.1499 33.1086 70.9848 33.3259ZM72.2504 32.5654C72.4705 32.3481 72.6356 32.1308 72.8007 31.8592C72.6631 31.9678 72.5255 32.0765 72.388 32.158C72.3605 32.2938 72.3054 32.4296 72.2504 32.5654Z" fill="#FF0000"/>
<path d="M11.6935 45.8465L11.6384 45.7107L11.6109 45.5749C11.5559 45.086 11.4183 44.1897 10.7305 44.0539C10.5379 43.9995 10.3453 44.0267 10.1527 44.1082C10.2077 43.8909 10.2077 43.7008 10.1252 43.5378C9.87759 42.886 8.94214 42.886 8.47442 42.886H8.33685L8.19928 42.8588C7.70405 42.7773 6.82362 42.6144 6.43844 43.2119C6.32838 43.3749 6.30087 43.565 6.32838 43.7823C6.13579 43.6736 5.9432 43.6193 5.75061 43.6193C5.03526 43.6465 4.76013 44.5156 4.62256 44.9773L4.56754 45.1131L4.51251 45.2489C4.26489 45.6835 3.85219 46.4711 4.31992 47.0144C4.45749 47.1502 4.62257 47.2588 4.84267 47.3131C4.67759 47.4489 4.56754 47.6119 4.51251 47.802C4.31992 48.481 5.06278 48.9971 5.47547 49.2958L5.58553 49.3773L5.69558 49.486C6.02574 49.839 6.65854 50.4909 7.31886 50.2193C7.48394 50.1378 7.64902 50.0292 7.75907 49.839C7.84161 50.0292 7.95166 50.1921 8.11674 50.3008C8.72203 50.681 9.46489 50.1378 9.85008 49.8662L9.96013 49.7847L10.0977 49.7304C10.5379 49.5131 11.3633 49.1329 11.3083 48.4267C11.2808 48.2366 11.1982 48.0736 11.0607 47.8835C11.2808 47.8563 11.4734 47.802 11.6109 47.6934C12.1612 47.1502 11.8585 46.3082 11.6935 45.8465Z" fill="white"/>
<path d="M9.3549 46.8518C9.3549 46.7974 9.38241 46.7431 9.38241 46.6888C9.38241 46.6616 9.38241 46.6073 9.38241 46.5801C9.79511 46.39 10.2353 46.1727 10.2353 46.1727L10.2078 46.0913C10.2078 46.0913 9.74008 46.0913 9.27236 46.0913C9.21733 45.9555 9.13479 45.8197 9.05225 45.711C11.1157 42.995 11.1433 45.4666 11.2258 45.8197C11.3358 46.1456 12.3813 48.3727 9.3549 46.8518ZM7.86918 45.195C8.00675 44.7876 8.14431 44.353 8.14431 44.353H8.22685C8.22685 44.353 8.28188 44.7876 8.36442 45.2221C8.47447 45.2493 8.61204 45.3036 8.72209 45.3579C11.1708 42.9678 8.66707 43.2666 8.30939 43.2394C7.95172 43.2122 5.55807 42.4789 7.53902 45.2493C7.64908 45.2493 7.75913 45.2221 7.86918 45.195ZM6.60357 46.6345C6.60357 46.5801 6.60357 46.5258 6.60357 46.4715C6.60357 46.4443 6.63109 46.39 6.63109 46.3629C6.2459 46.0913 5.86072 45.7925 5.86072 45.7925L5.88823 45.711C5.88823 45.711 6.35595 45.7925 6.82368 45.874C6.90622 45.7382 7.01627 45.6295 7.12632 45.5209C5.58558 42.5061 5.11786 44.9234 4.95278 45.2493C4.81521 45.5752 3.38453 47.5851 6.60357 46.6345ZM9.18982 47.2592C9.10728 47.395 9.02474 47.5036 8.91468 47.6122C9.05225 48.0468 9.21733 48.5629 9.21733 48.5629L9.13479 48.6172C9.13479 48.6172 8.7496 48.2369 8.41945 47.8839C8.30939 47.911 8.19934 47.9382 8.1168 47.9382C7.59405 51.1974 9.40992 49.5135 9.71257 49.3234C10.0427 49.1604 12.4089 48.3456 9.18982 47.2592ZM7.34643 47.8024C6.96125 48.074 6.52103 48.3999 6.52103 48.3999L6.43849 48.3456C6.43849 48.3456 6.68611 47.8839 6.90622 47.4764C6.82368 47.3678 6.74114 47.232 6.68611 47.0962C3.38453 47.6122 5.55807 48.8073 5.8332 49.0246C6.10834 49.269 7.59405 51.2246 7.64908 47.9382C7.56654 47.8839 7.45648 47.8567 7.34643 47.8024ZM8.63955 46.0369C8.50199 45.874 8.30939 45.7653 8.08929 45.7382C7.64908 45.711 7.23638 46.0369 7.20886 46.4715C7.18135 46.6888 7.26389 46.9061 7.40146 47.069C7.53902 47.232 7.73162 47.3406 7.95172 47.3678C8.39193 47.395 8.80463 47.069 8.83214 46.6345C8.83214 46.4172 8.77712 46.2271 8.63955 46.0369Z" fill="#FF0000"/>
<path d="M8.58426 26.8341C6.63082 26.481 4.75992 27.7847 4.40225 29.7131C4.04458 31.6415 5.36521 33.4884 7.31865 33.8415C9.27209 34.1946 11.143 32.8909 11.5007 30.9625C11.8583 29.007 10.5377 27.16 8.58426 26.8341Z" fill="white"/>
<path d="M8.91406 30.5282C7.09819 29.4146 6.21777 28.8985 5.30983 28.5726C5.52994 28.2738 5.77755 28.0022 6.0802 27.7849C6.46539 27.8121 6.79554 27.9207 7.15322 28.0837C7.23576 28.1109 7.3183 28.1652 7.40083 28.2195C7.62094 28.3553 7.84105 28.4911 8.11618 28.6541C8.19872 28.7084 8.28126 28.7627 8.3638 28.817C8.39131 28.817 8.96909 29.1973 9.24422 29.3874C9.29925 29.4417 9.35427 29.4689 9.4093 29.4961C9.38179 29.5775 9.02412 30.3109 8.91406 30.5282ZM8.55639 31.4244C8.5839 31.343 8.74898 30.9356 8.83152 30.7726C6.96062 29.6319 6.10771 29.1158 5.19978 28.817C5.06221 29.0615 4.95216 29.3331 4.89713 29.6319C5.39237 30.3109 6.76803 30.9899 8.55639 31.4244ZM8.3638 28.5183C9.05163 28.1109 9.84951 28.2195 10.4823 28.4368C10.2622 28.138 9.98708 27.8936 9.65692 27.7035C9.07914 27.5948 8.28126 27.5677 7.64845 28.0837C7.84105 28.1923 8.08867 28.3553 8.3638 28.5183ZM5.55745 31.8047C5.63999 31.859 5.75004 31.9405 5.86009 31.9948C6.05269 32.1035 6.30031 32.2121 6.52041 32.2936C6.63046 32.3207 6.713 32.3751 6.82306 32.4022C7.18073 32.5109 7.97861 32.7282 8.03364 32.7282C8.03364 32.701 8.33628 31.9677 8.47385 31.6961C7.07068 31.343 5.55745 30.7726 4.8421 29.9849C4.78708 30.338 4.81459 30.6911 4.89713 31.0442C5.00718 31.343 5.2548 31.6146 5.55745 31.8047ZM8.06115 32.9998L7.75851 32.9183C7.48337 32.864 7.20824 32.7825 6.9056 32.6738C7.04316 32.9726 7.29078 33.217 7.51089 33.4072C7.84105 33.4615 8.14369 33.4343 8.47385 33.38C8.28126 33.2442 8.06115 32.9998 8.06115 32.9998ZM10.9776 29.4146C10.9225 29.1973 10.8125 29.0072 10.7024 28.7899C10.1522 28.5454 9.32676 28.301 8.5839 28.6541L9.60189 29.3059C9.822 29.2788 10.0146 29.2788 10.1797 29.2788C10.2622 29.2788 10.3723 29.2788 10.4548 29.3059C10.6749 29.3602 10.84 29.3874 10.9776 29.4146ZM10.4548 29.6047C10.4273 31.2343 9.65692 32.4837 8.96909 33.2714C10.0146 32.9183 10.84 32.022 11.0601 30.8541C11.1426 30.4467 11.1151 30.0664 11.0326 29.7133C10.895 29.6862 10.7024 29.6319 10.4548 29.6047ZM7.37332 27.9207C7.84105 27.5133 8.39131 27.3775 8.91406 27.3504C8.7765 27.3232 8.63893 27.2689 8.50136 27.2417C7.75851 27.1059 7.04316 27.2417 6.43787 27.5677C6.76803 27.6491 7.07068 27.7578 7.37332 27.9207ZM9.65692 29.6047C9.4093 30.0936 9.27173 30.3923 9.16168 30.664C9.13417 30.7454 9.07914 30.8269 9.05163 30.9084C8.9966 31.0442 8.83152 31.4788 8.83152 31.4788L8.72147 31.7232L8.28126 32.8096C8.39131 32.9726 8.55639 33.1084 8.69396 33.1899C9.35427 32.4565 10.1797 31.2072 10.2072 29.5504C10.0421 29.5775 9.84951 29.6047 9.65692 29.6047ZM6.60295 32.5923C6.38285 32.5109 6.16274 32.4294 5.94263 32.3207C6.02517 32.5652 6.13523 32.7825 6.24528 32.9454C6.4929 33.1084 6.74052 33.217 7.01565 33.2985C6.85057 33.1084 6.68549 32.8911 6.60295 32.5923ZM5.61247 32.1578C5.47491 32.0763 5.30983 31.9677 5.19978 31.859C5.33734 32.1306 5.52994 32.3479 5.75004 32.5652C5.69501 32.4294 5.63999 32.2936 5.61247 32.1578Z" fill="#FF0000"/>
<path d="M16.2606 61.1115C16.5358 61.3559 17.1686 61.9535 17.1686 61.9535L16.4807 62.6596C16.4807 62.6596 15.8479 62.0621 15.5728 61.8177C15.2427 62.1436 14.3897 63.0399 14.3897 63.0399L13.3442 62.0621L16.068 59.2374L16.3157 58.9658L18.3516 60.8671L17.6638 61.5732C17.6638 61.5732 16.9485 60.8942 16.6733 60.6226C16.5083 60.8671 16.4257 60.9485 16.2606 61.1115ZM21.5982 64.2621C21.5982 64.7238 21.4331 65.2127 21.158 65.6201C20.8003 66.1362 20.2501 66.4621 19.6723 66.5708C19.122 66.6522 18.5718 66.5436 18.104 66.2177C17.6363 65.8917 17.3337 65.43 17.2511 64.8868C17.1411 64.3164 17.3061 63.6917 17.6638 63.1757C18.049 62.6596 18.5718 62.3066 19.1495 62.2251C19.6998 62.1436 20.2501 62.2522 20.7178 62.5782C21.1855 62.9041 21.4882 63.393 21.5707 63.9362C21.5982 64.0177 21.5982 64.1263 21.5982 64.2621ZM19.9474 64.751C20.1675 64.4522 20.6352 63.6917 20.14 63.3387C19.6723 63.0127 19.122 63.6103 18.8469 63.9905C18.5718 64.3708 18.1866 65.0769 18.6543 65.4029C19.1495 65.7559 19.7273 65.0769 19.9474 64.751ZM25.6426 67.9016C25.34 68.472 24.8723 68.8794 24.322 69.0695C23.7993 69.2325 23.2215 69.2053 22.7262 68.9337C22.231 68.6893 21.8458 68.2547 21.6807 67.7387C21.4882 67.1683 21.5432 66.5436 21.8458 66.0004C22.4236 64.8596 23.6892 64.4251 24.7897 64.9683C25.8352 65.5115 26.2204 66.788 25.6426 67.9016ZM24.322 67.2498C24.5421 66.788 24.6522 66.3806 24.5696 66.109C24.5421 65.9732 24.4321 65.8917 24.2945 65.8374C23.7718 65.5658 23.3315 66.2448 23.1114 66.6522C22.9739 66.8967 22.8363 67.2498 22.8363 67.5485C22.8363 67.7658 22.9188 67.9559 23.1389 68.0646C23.2765 68.1189 23.3866 68.1461 23.5241 68.0917C23.7993 68.0374 24.1019 67.7115 24.322 67.2498ZM27.0183 66.5164L26.8257 67.0868C26.8257 67.0868 27.3485 67.2769 27.486 67.3041C27.2934 67.8473 26.3855 70.4004 26.3855 70.4004L27.7337 70.8621C27.7337 70.8621 28.6416 68.309 28.8342 67.7658C28.9993 67.8201 29.4945 68.0103 29.4945 68.0103L29.8247 67.0868L27.1284 66.1633L27.0183 66.5164ZM33.7315 69.0424C33.7315 69.1238 33.7315 69.2053 33.704 69.2868C33.649 69.5856 33.4839 69.8029 33.2913 69.9658C33.4289 70.1559 33.5114 70.4004 33.5114 70.6448C33.5114 70.7263 33.5114 70.835 33.4839 70.9164C33.4014 71.2695 33.2088 71.5683 32.9337 71.7584C32.7135 71.8942 32.3284 72.0572 31.7231 71.9214L29.8797 71.5411L30.7051 67.7387L30.7876 67.3856L32.6035 67.7658C33.4564 67.9288 33.7315 68.5535 33.7315 69.0424ZM32.1083 70.5362C32.1083 70.4004 32.0532 70.2374 31.8331 70.1831C31.8331 70.1831 31.7231 70.1559 31.6405 70.1559C31.5855 70.4275 31.5305 70.6177 31.4755 70.8893C31.558 70.9164 31.6405 70.9164 31.6405 70.9164C31.8056 70.9436 31.9157 70.9436 31.9707 70.9164C32.0257 70.8621 32.0807 70.7535 32.0807 70.672C32.1083 70.6448 32.1083 70.5905 32.1083 70.5362ZM31.8331 69.2053C31.8882 69.2053 31.9157 69.2325 31.9157 69.2325C32.2183 69.2868 32.2733 69.151 32.3008 69.0424C32.3008 69.0152 32.3008 68.9609 32.3008 68.9337C32.3008 68.8794 32.3008 68.8522 32.2733 68.7979C32.2183 68.7436 32.1083 68.6621 31.9432 68.635C31.9157 68.8522 31.8882 68.988 31.8331 69.2053ZM35.9601 68.3905L33.9792 72.3831L35.1072 72.4646C35.1072 72.4646 35.4098 71.8399 35.5474 71.5683C35.795 71.5954 36.0151 71.5954 36.2628 71.6226C36.3453 71.8942 36.5654 72.5732 36.5654 72.5732L38.0786 72.6819L36.4003 67.5485L35.9601 68.3905ZM40.3897 71.5683C40.3622 70.9708 40.2522 68.3362 40.2522 68.3362L39.867 68.3633L38.8215 68.4177L39.0141 72.6819L41.8755 72.5732L41.8204 71.5411C41.8204 71.514 40.8024 71.5411 40.3897 71.5683ZM44.2966 71.1609C44.2141 70.5905 43.8014 67.9559 43.8014 67.9559L43.4162 68.0103L42.3707 68.1732L43.031 72.3831L45.8649 71.9485L45.6998 70.9436C45.7273 70.9436 44.7093 71.1066 44.2966 71.1609ZM52.4956 68.309C52.4956 68.6893 52.2754 68.988 51.9178 69.1238C51.7252 69.2053 51.5601 69.2053 51.3675 69.1238C51.0924 69.0152 50.8448 68.7164 50.6797 68.3362C50.4871 67.8745 50.4596 67.4942 50.5696 67.2498C50.6522 67.0596 50.8172 66.9238 51.0649 66.8152C51.34 66.7066 51.5876 66.8152 51.9178 67.0053L52.2204 67.1954L52.7432 66.3806L52.4405 66.1905C51.8628 65.8103 51.1474 65.7288 50.5421 65.9732C49.9643 66.1905 49.5241 66.6251 49.304 67.1411C49.0564 67.6843 49.0564 68.309 49.304 68.9066C49.7442 70.0201 51.0374 70.5633 52.1654 70.1288C52.9633 69.8029 53.431 69.2053 53.486 68.3633L53.5135 67.9831L52.468 67.9016L52.4956 68.309ZM55.7971 67.1683C55.4945 66.6522 54.2014 64.3436 54.2014 64.3436L53.8712 64.5337L52.9633 65.0498L55.0818 68.7708L57.5855 67.3856L57.0903 66.4893C57.0628 66.4621 56.1548 66.951 55.7971 67.1683ZM58.576 61.4103L58.2733 61.6275L57.7506 62.0078L59.5114 64.3708C59.594 64.4794 59.594 64.5609 59.594 64.588C59.5665 64.6967 59.4564 64.8325 59.3463 64.914C59.2913 64.9411 59.1813 64.9954 59.0437 64.9954C58.9612 64.9954 58.8786 64.9411 58.8236 64.8596L57.0903 62.5238L55.9347 63.3658L57.668 65.6745C57.9157 66.0275 58.2458 66.2177 58.6035 66.272C59.0162 66.3263 59.4839 66.1905 59.9241 65.8646C60.8321 65.2127 60.8046 64.3436 60.4194 63.8275L58.576 61.4103ZM64.2162 61.4646C64.2162 61.7362 64.1061 62.1164 63.6934 62.551L62.3453 63.8547L59.3463 60.7856L60.667 59.509C61.4098 58.8029 62.2077 59.0745 62.5654 59.4547C62.7855 59.672 62.868 59.9164 62.8956 60.188C63.2257 60.1609 63.5559 60.2967 63.831 60.5683C64.0786 60.8127 64.2162 61.1387 64.2162 61.4646ZM61.0247 60.514C61.1897 60.6769 61.2723 60.7584 61.4374 60.9485C61.4649 60.9214 61.4924 60.8942 61.4924 60.8942C61.6024 60.7856 61.6299 60.7313 61.6299 60.6498C61.6299 60.5683 61.5749 60.514 61.5199 60.4596C61.4649 60.351 61.3273 60.2424 61.0247 60.514ZM62.1527 61.6275C62.3453 61.8177 62.4829 61.9535 62.6754 62.1708C62.7305 62.1164 62.7855 62.0621 62.7855 62.0621C62.8956 61.9535 62.9506 61.8448 62.9506 61.7905C62.9506 61.709 62.868 61.6275 62.813 61.5461C62.758 61.4646 62.5104 61.2745 62.2628 61.5189C62.2628 61.5189 62.2077 61.5732 62.1527 61.6275Z" fill="#FBB700"/>
<path d="M15.8475 61.139C15.9576 61.2476 16.7555 61.981 16.7555 61.981L16.4528 62.2797C16.4528 62.2797 15.6549 61.5464 15.5449 61.4377C15.4348 61.5464 14.3618 62.66 14.3618 62.66L13.729 62.0624L16.2602 59.455L16.3152 59.4007L17.9385 60.9217L17.6359 61.2205C17.6359 61.2205 16.7555 60.4056 16.6454 60.2698C16.5629 60.4056 15.9576 61.0303 15.8475 61.139ZM21.2951 63.9365C21.3227 64.0452 21.3227 64.1538 21.3227 64.2353C21.3227 64.6427 21.1851 65.0501 20.91 65.4303C20.5798 65.8921 20.1121 66.1908 19.5893 66.2723C19.1216 66.3538 18.6264 66.2452 18.2412 65.9464C17.8285 65.6748 17.5809 65.2402 17.4983 64.7785C17.4158 64.2624 17.5533 63.7464 17.8835 63.2847C18.2137 62.8229 18.6814 62.5242 19.2041 62.4427C19.6719 62.3612 20.1671 62.4698 20.5523 62.7686C20.9375 63.0674 21.2126 63.4748 21.2951 63.9365ZM20.3047 63.1217C19.6168 62.6328 18.9015 63.4476 18.6264 63.8279C18.3512 64.2081 17.801 65.1316 18.4888 65.6205C19.2041 66.1094 19.892 65.2945 20.1671 64.9143C20.4422 64.534 20.9925 63.6106 20.3047 63.1217ZM25.3946 67.7933C25.147 68.2822 24.7343 68.6624 24.2391 68.8254C23.7713 68.9612 23.2761 68.934 22.8359 68.7168C22.3957 68.4995 22.0655 68.1192 21.9279 67.6847C21.7629 67.1958 21.8179 66.6526 22.0655 66.1365C22.5607 65.1316 23.6613 64.7513 24.6242 65.2131C25.5597 65.7019 25.9174 66.7884 25.3946 67.7933ZM23.6338 68.3908C24.1015 68.255 24.4317 67.7118 24.5967 67.3859C24.7618 67.0871 25.0094 66.4896 24.8443 66.0279C24.7893 65.8377 24.6518 65.6748 24.4317 65.5933C23.6613 65.2131 23.0835 66.1365 22.8909 66.5439C22.6708 66.9513 22.2856 67.9563 23.0285 68.3365C23.2211 68.418 23.4412 68.4452 23.6338 68.3908ZM27.2655 66.6254L27.1555 66.9242C27.1555 66.9242 27.6782 67.1143 27.8158 67.1686C27.7607 67.3316 26.7152 70.2649 26.7152 70.2649L27.5406 70.5365C27.5406 70.5365 28.5861 67.6032 28.6412 67.4402C28.7787 67.4945 29.3015 67.6575 29.3015 67.6575L29.4391 67.2773L27.293 66.5439L27.2655 66.6254ZM33.456 69.0427C33.456 69.1242 33.456 69.1785 33.4285 69.2328C33.3459 69.5859 33.1258 69.8032 32.7957 69.9118C33.0708 70.1019 33.2359 70.3736 33.2359 70.6723C33.2359 70.7538 33.2359 70.8081 33.2084 70.8896C33.1533 71.1884 32.9883 71.4056 32.7682 71.5415C32.5205 71.7044 32.1904 71.7587 31.7777 71.6773L30.2094 71.3513L30.9523 67.8205L30.9798 67.739L32.5205 68.0649C33.2634 68.1736 33.456 68.6896 33.456 69.0427ZM31.7502 68.2822C31.7227 68.418 31.5301 69.26 31.5026 69.4229C31.6401 69.4501 31.8602 69.5044 31.8602 69.5044C32.0803 69.5587 32.4655 69.5587 32.5756 69.097C32.5756 69.0427 32.6031 68.9884 32.6031 68.934C32.6031 68.8254 32.5756 68.7439 32.5205 68.6624C32.438 68.5266 32.2454 68.418 31.9978 68.3637C31.9978 68.3365 31.8327 68.3094 31.7502 68.2822ZM31.42 69.8303C31.3925 69.9933 31.1724 70.9711 31.1449 71.1069C31.2824 71.134 31.5851 71.1884 31.5851 71.1884C31.8052 71.2427 31.9978 71.2155 32.1354 71.134C32.2454 71.0526 32.3279 70.9168 32.383 70.6995C32.383 70.6995 32.4105 70.618 32.4105 70.5365C32.4105 70.3192 32.3279 69.9933 31.9152 69.9118C31.8877 69.9118 31.5576 69.8575 31.42 69.8303ZM36.3174 68.3094L37.638 72.3834L36.7576 72.3291C36.7576 72.3291 36.4824 71.4871 36.4549 71.3785C36.3449 71.3785 35.4645 71.297 35.3544 71.297C35.2994 71.4056 34.9142 72.1933 34.9142 72.1933L34.3914 72.1661L36.1798 68.5538L36.3174 68.3094ZM35.547 70.8624C35.7121 70.8896 36.1248 70.9168 36.3174 70.9168C36.2623 70.7538 36.0973 70.2106 36.0147 69.939C35.8772 70.2106 35.6295 70.6995 35.547 70.8624ZM40.1142 71.8674C40.1142 71.7044 39.9766 68.6353 39.9766 68.6353H39.8941L39.1237 68.6624L39.2888 72.3563L41.5724 72.2748L41.5449 71.8131C41.5449 71.7859 40.2793 71.8402 40.1142 71.8674ZM44.0761 71.4871C44.0486 71.3242 43.5809 68.2822 43.5809 68.2822L43.4983 68.3094L42.7555 68.418L43.3332 72.0847L45.5893 71.7316L45.5068 71.2698C45.4793 71.2698 44.2412 71.46 44.0761 71.4871ZM52.7703 68.3365C52.7428 68.8254 52.4676 69.2328 52.0274 69.3958C51.7798 69.5044 51.5047 69.5044 51.257 69.3958C50.8994 69.26 50.5967 68.9069 50.4041 68.4452C50.184 67.9291 50.1565 67.4674 50.2941 67.1415C50.4041 66.8698 50.6242 66.6797 50.9269 66.5711C51.3396 66.4081 51.7248 66.5982 52.0274 66.7884L52.11 66.8427L52.3301 66.4896L52.2475 66.4353C51.7523 66.1094 51.147 66.055 50.5967 66.2452C50.1015 66.4353 49.7163 66.8155 49.4962 67.2773C49.2761 67.7661 49.3036 68.3094 49.4962 68.8254C49.8814 69.8032 51.0094 70.2921 51.9999 69.8847C52.7153 69.6131 53.1004 69.097 53.1555 68.3637V68.2822L52.6877 68.255L52.7703 68.3365ZM55.6867 67.5489C55.6041 67.3859 54.0909 64.7242 54.0909 64.7242L54.0084 64.7785L53.3481 65.1587L55.1914 68.3908L57.1999 67.2773L56.9798 66.8698C56.9523 66.8427 55.8518 67.4674 55.6867 67.5489ZM58.5205 61.818L58.438 61.8723L58.1354 62.0896L59.7311 64.2081C59.8412 64.3439 59.8687 64.5069 59.8687 64.6427C59.8412 64.8871 59.5936 65.0773 59.511 65.1587C59.401 65.2402 59.2084 65.3217 58.9883 65.2674C58.8232 65.2402 58.6856 65.1587 58.5756 65.0229L57.0073 62.9316L56.3195 63.4476L57.8602 65.539C58.0803 65.8106 58.3279 65.9736 58.6031 66.0279C59.0708 66.1094 59.511 65.8377 59.7311 65.6748C60.474 65.1316 60.5015 64.4526 60.1713 64.018L58.5205 61.818ZM63.9406 61.4649C63.9406 61.7637 63.7756 62.0624 63.5004 62.334L62.3449 63.4476L59.7311 60.7859L60.8592 59.6995C61.492 59.0748 62.1248 59.4007 62.3724 59.6452C62.5375 59.8353 62.6475 60.0254 62.6475 60.2698C62.6475 60.3513 62.62 60.46 62.5925 60.5414C62.9777 60.4056 63.3354 60.46 63.638 60.7587C63.8306 60.976 63.9406 61.2205 63.9406 61.4649ZM61.7671 60.2698C61.492 59.9711 61.1618 59.9982 60.8317 60.3513C60.8317 60.3513 60.7216 60.46 60.6391 60.5143C60.7491 60.6229 61.3544 61.2476 61.4645 61.3563C61.5745 61.2476 61.7396 61.0847 61.7396 61.0847C61.8496 60.976 61.9597 60.8402 61.9597 60.6501C61.9322 60.5143 61.9047 60.4056 61.7671 60.2698ZM62.9777 62.2797C63.1428 62.1168 63.2253 61.9538 63.2528 61.7908C63.2528 61.655 63.1703 61.5192 63.0327 61.3563C63.0052 61.3291 62.5375 60.8674 62.0973 61.3019C62.0973 61.3019 61.8496 61.5192 61.7671 61.6279C61.8772 61.7365 62.5925 62.4698 62.7026 62.5785C62.7576 62.4698 62.9777 62.2797 62.9777 62.2797Z" fill="white"/>
<path d="M21.8181 13.6622C22.2033 15.0745 21.8181 16.3239 20.6626 17.3288C19.0668 18.714 16.6181 18.5239 15.2149 16.9486C13.7017 15.2375 13.8393 12.8474 15.5451 11.3535C16.4255 10.593 17.6361 10.3214 18.7917 10.6202L19.3419 10.756L18.9842 12.2498L18.434 12.1412C17.7186 12.0054 17.1684 11.9782 16.7557 12.3585C16.3705 12.6844 16.1779 13.0375 16.1504 13.4449C16.1229 13.9881 16.398 14.6671 17.0033 15.3461C17.526 15.9165 18.1588 16.2967 18.7366 16.3239C19.1218 16.3511 19.452 16.2424 19.7546 15.9708C20.2774 15.5091 20.4975 14.8029 20.2774 14.1239L20.0848 13.5535L21.653 13.1461L21.8181 13.6622ZM25.9451 5.3239L24.3493 6.08439C24.3493 6.08439 25.2573 7.95847 25.5599 8.61032C25.0922 8.8276 24.652 9.04489 24.1842 9.23501C23.8816 8.58316 22.9737 6.70909 22.9737 6.70909L20.8551 7.68686L24.0742 14.4498L26.1927 13.472C26.1927 13.472 25.2022 11.3807 24.8721 10.7017C25.3398 10.4844 25.78 10.2943 26.2477 10.077C26.5779 10.756 27.5684 12.8474 27.5684 12.8474L29.6869 11.8696L26.4678 5.07946L25.9451 5.3239ZM33.126 9.50662C33.016 8.99057 32.9059 8.50168 32.8234 7.98563C33.4837 7.84983 35.217 7.49674 35.217 7.49674L34.9144 6.00291C34.9144 6.00291 33.1811 6.356 32.5208 6.4918C32.4382 6.03007 32.3557 5.64983 32.2456 5.1881C32.9335 5.0523 34.7768 4.67205 34.7768 4.67205L34.4742 3.17822L33.9239 3.28686L29.6319 4.12884L31.1176 11.4622L35.9874 10.4844L35.6848 8.99057C35.7123 9.01773 33.8139 9.37081 33.126 9.50662ZM40.0594 3.01526L37.7208 2.96094V3.53131L37.5832 10.4572L42.5081 10.5659L42.5356 8.93625C42.5356 8.93625 40.6372 8.90909 39.9493 8.88193C39.9493 7.95847 40.0594 3.01526 40.0594 3.01526ZM47.653 6.79057C47.0477 6.356 46.8551 6.16588 46.9377 5.92143C46.9652 5.78563 47.1028 5.40538 47.543 5.51402C47.8181 5.56834 48.0657 5.70415 48.1758 6.27452L48.3133 6.89921L49.8541 6.38316L49.744 5.89427C49.5514 4.94365 48.7536 4.156 47.7356 3.88439C47.0202 3.69427 46.2774 3.80291 45.6721 4.156C45.1218 4.48193 44.7366 4.99797 44.5715 5.59551C44.1864 7.11649 45.2319 7.87699 45.9197 8.36588C46.635 8.85476 46.8001 9.07205 46.6901 9.47946C46.6625 9.61526 46.58 9.7239 46.4424 9.77822C46.3049 9.8597 46.1123 9.88686 45.9747 9.8597C45.617 9.77822 45.452 9.5881 45.2869 9.12637L45.0943 8.556L43.526 9.18069L43.6636 9.66958C43.9663 10.6202 44.6541 11.2177 45.7821 11.4893C47.0752 11.8153 48.616 11.2177 49.0012 9.69674C49.4964 8.12143 48.3959 7.30662 47.653 6.79057ZM53.2657 10.756C53.871 11.0548 55.4393 11.8424 55.4393 11.8424L56.1271 10.4844C56.1271 10.4844 54.5313 9.69674 53.9536 9.39797C54.1737 8.99057 54.3387 8.63748 54.5588 8.20291C55.1641 8.50168 56.87 9.37081 56.87 9.37081L57.5578 8.01279L53.1557 5.81279L52.9081 6.30168L49.744 12.4671L54.2012 14.6943L54.889 13.3362C54.889 13.3362 53.1557 12.4671 52.5504 12.1683C52.798 11.6795 53.0181 11.2177 53.2657 10.756ZM63.3081 10.8375L60.2816 19.6375L58.4107 18.035C58.4107 18.035 58.8509 16.7856 58.9885 16.3511C58.6858 16.0795 58.2181 15.6992 57.8879 15.4276C57.4752 15.6449 56.2922 16.2696 56.2922 16.2696L54.944 15.1017L62.0149 11.4893L63.3081 10.8375Z" fill="#FBB700"/>
<path d="M21.4605 13.7704C21.8182 15.047 21.4605 16.1606 20.415 17.0569C18.9843 18.3062 16.7833 18.1433 15.4901 16.7038C14.1145 15.1556 14.2245 12.9828 15.7653 11.6519C16.5357 10.9729 17.6362 10.7285 18.6817 10.9729L18.8743 11.0272L18.7092 11.7877L18.5166 11.7606C17.8563 11.6248 17.1134 11.5433 16.5081 12.0593C16.0404 12.4396 15.7928 12.9013 15.7653 13.4174C15.7103 14.0692 16.0404 14.8297 16.7282 15.5902C17.306 16.2421 18.0489 16.6495 18.7092 16.7038C19.1769 16.7309 19.6171 16.5951 20.0023 16.2692C20.6626 15.6988 20.8827 14.8569 20.6351 14.0421L20.5801 13.8519L21.4055 13.6346L21.4605 13.7704ZM26.1103 5.67662L24.8446 6.24699C24.8446 6.24699 25.9177 8.47415 26.0552 8.77292C25.7801 8.90872 24.2669 9.58773 24.0193 9.72354C23.8817 9.42477 22.8087 7.19761 22.8087 7.19761L21.3505 7.87662L24.2669 13.9606L25.6976 13.2816C25.6976 13.2816 24.5145 10.81 24.3769 10.5112C24.6521 10.3754 26.1653 9.69638 26.4129 9.56057C26.5505 9.85934 27.7335 12.3309 27.7335 12.3309L29.1642 11.6519L26.2753 5.59514L26.1103 5.67662ZM32.8235 9.96798C32.7685 9.66921 32.4108 8.01242 32.3558 7.71366C32.6584 7.65934 34.7494 7.22477 34.7494 7.22477L34.5843 6.46428C34.5843 6.46428 32.4933 6.87168 32.1907 6.95317C32.1357 6.6544 31.833 5.21489 31.778 4.91613C32.1081 4.86181 34.3092 4.40008 34.3092 4.40008L34.1441 3.63959L33.9515 3.66675L30.0446 4.4544L31.3928 11.0544L35.5198 10.2396L35.3547 9.47909C35.4097 9.45193 33.1536 9.8865 32.8235 9.96798ZM39.6743 3.36798L38.0785 3.34082V3.53094L37.9409 10.0766L42.123 10.1581L42.1505 9.28897C42.1505 9.28897 39.8944 9.23465 39.5642 9.23465C39.5367 8.88156 39.6743 3.36798 39.6743 3.36798ZM47.6256 5.13341C48.1208 5.26921 48.4235 5.59514 48.5335 6.19267L48.5886 6.40996L49.414 6.13835L49.3864 5.97539C49.2214 5.16057 48.5335 4.48156 47.6531 4.26428C47.0203 4.10131 46.3875 4.1828 45.8923 4.48156C45.4245 4.75317 45.0944 5.18773 44.9843 5.70378C44.6542 6.98033 45.5071 7.57786 46.1949 8.06675C46.8827 8.55563 47.2954 8.88156 47.1304 9.58773C47.0478 9.8865 46.8552 10.0495 46.7177 10.1309C46.4976 10.2667 46.2224 10.3211 45.9748 10.2396C45.4796 10.1038 45.2044 9.85934 45.0118 9.26181L44.9568 9.07168L44.1039 9.42477L44.1589 9.58773C44.4066 10.4025 45.0118 10.9186 46.0298 11.163C47.1304 11.4346 48.451 10.9458 48.7812 9.64205C49.1113 8.28403 48.2309 7.63218 47.488 7.11613C46.8552 6.6544 46.4976 6.35563 46.6076 5.86675C46.6901 5.37786 47.0478 4.99761 47.6256 5.13341ZM54.3938 7.71366C54.6965 7.84946 56.705 8.8544 56.705 8.8544L57.0626 8.14823L53.3208 6.27415L53.2383 6.43712L50.2394 12.2766L54.0087 14.1507L54.3663 13.4445C54.3663 13.4445 52.3028 12.4124 52.0277 12.2766C52.1653 12.005 52.9356 10.484 53.0732 10.2396C53.3483 10.3754 55.2468 11.326 55.2468 11.326L55.6044 10.6198C55.6044 10.6198 53.706 9.66921 53.4309 9.53341C53.596 9.31613 54.2563 7.98526 54.3938 7.71366ZM62.6478 11.5976L60.1166 18.9853L58.8785 17.926C58.8785 17.926 59.4013 16.4322 59.4563 16.2421C59.2912 16.1063 58.1356 15.1013 57.9706 14.9655C57.778 15.0742 56.3748 15.8075 56.3748 15.8075L55.6319 15.1828L62.2076 11.8149L62.6478 11.5976ZM59.7314 15.4272C59.8415 15.1013 60.1441 14.2593 60.3092 13.7704C59.814 14.0149 59.0436 14.4223 58.7134 14.5853C58.9886 14.7754 59.4838 15.21 59.7314 15.4272Z" fill="white"/>
</svg>
