<svg width="78" height="77" viewBox="0 0 78 77" fill="none" xmlns="http://www.w3.org/2000/svg"><path d="M38.986 76.973c21.532 0 38.986-17.231 38.986-38.487C77.972 17.231 60.518 0 38.986 0 17.455 0 0 17.231 0 38.486c0 21.256 17.455 38.487 38.986 38.487z" fill="#FBB700"/><path d="M38.986 75.696c20.817 0 37.693-16.66 37.693-37.21S59.803 1.276 38.986 1.276c-20.817 0-37.693 16.66-37.693 37.21s16.876 37.21 37.693 37.21z" fill="#001489"/><path d="M38.987 64.995c14.83 0 26.853-11.869 26.853-26.509S53.817 11.978 38.987 11.978c-14.83 0-26.853 11.868-26.853 26.508 0 14.64 12.022 26.509 26.853 26.509z" fill="#FBB700"/><path d="M38.986 64.208c14.39 0 26.055-11.516 26.055-25.721 0-14.206-11.665-25.721-26.055-25.721S12.931 24.28 12.931 38.486s11.665 25.722 26.055 25.722z" fill="#fff"/><path d="M57.613 37.481c-.55-1.412-2.394-2.01-4.155-1.358a3.955 3.955 0 0 0-1.733 1.25c1.155-3.26 5.86-3.966 5.86-6.98 0-5.08-7.318-3.667-6.245 0 0-1.657 2.668-1.956 2.668 0 0 1.955-4.677 3.259-4.677 6.572 0 3.667 3.714 3.993 3.33 7.36-.056.571-.689 1.332-1.596 1.332-5.696 0-3.66-6.9-5.64-9.018l.11-1.412c1.155.706 4.181-.923 2.2-3.422 0 1.222-2.586 1.14-2.586-1.14 0-3.124 2.944-1.495 3.11-.816-.138-1.14-.193-1.847 0-2.498-1.596.515-1.734-.408-1.541-.761.22-.407.55-.87 1.155-.87.33 0 .55.055.66.137.193.136.33-.163.303.108.165-.244.11.055.275-.19.165-.244.385-.543.798-.923l-.027-.57.467.162.44-.706c-.467-.978-1.128-.516-1.623-1.738-.412-.109-6.658.57-6.465-1.901-.523 0-1.734.271-.963 1.276-.578.082-.99-.57-1.871 1.168 1.1-.19.523 1.005.523 1.358 0 2.227-3.027 2.2-3.027 1.14-.715.707-.303 2.228.798 2.608 0 0-.413 1.63-1.458 2.662-1.541-.054-3.99-.326-5.393-1.63-.605-.57-1.1-.869-1.513-1.032v-.76c.605-.299 1.265-.815 1.953-1.657.523-.652.826-1.467.743-2.363a.966.966 0 0 0-.055-.299c0-.027 0-.054-.027-.108-.028-.082-.028-.136-.055-.218 0-.027-.028-.054-.028-.108-.027-.082-.055-.136-.083-.218 0-.027-.027-.054-.027-.081-.028-.082-.083-.163-.138-.272-.027-.027-.027-.054-.055-.108l-.082-.163c-.028-.027-.055-.082-.083-.109-.027-.027-.055-.081-.082-.109-.028-.027-.055-.081-.11-.135l-.083-.082c-.082-.109-.192-.19-.275-.272l-.027-.027c-.056-.054-.11-.081-.166-.135-.027 0-.027-.028-.055-.028-.055-.054-.137-.081-.192-.135a3.672 3.672 0 0 0-2.229-.517c-1.98.163-3.439 1.793-3.274 3.64.138 1.44 1.21 2.607 2.614 2.96-.495.272-.908.435-.99.435.027 0 .027.027.055.027h.027c.028 0 .055.027.055.027h.028c.027.028.055.028.11.055h.027c.028.027.055.027.11.054h.028c.082.027.192.054.302.109h.055c.055 0 .083.027.138.027h.055c.055 0 .11.027.165.027h.028v.407h-.055c-.633.11-1.073.3-1.238.87-.193.57 0 .76.302 1.168-.247.434-.908.624-.055 1.602-.055.38.028.978.578 1.14.192.055.33.082.495.11v7.441c-.55.3-.825.652-.963.978 0 0-.44-.978-.413.95.496-.38.303.435.303.435-.688.87.193.815.193.815.577-.57.467.272.467.272 0 1.032.413 1.44.44 1.44v5.649h-.495v1.575h.88c-.494.19-.825.679-.77 1.222.055.68.688 1.168 1.404 1.114.715-.055 1.238-.652 1.183-1.304-.028-.462-.358-.842-.77-1.005h.797V50.41h-.468v-5.025c.11.054.22.082.33.109.056 0 .083.027.138.027h.055a1.273 1.273 0 0 1 .275-1.087c.193-.298.496-.543.853-.706 1.018-.489 2.394-.38 2.807.435 2.613-.68 4.842-3.26 4.842-3.26l1.293 2.146c-2.724.897-8.667 6.003-4.54 7.768 0 .516-.082 4.319-2.558 4.02-3.577-.435-4.458 1.032-3.77 2.662-.33 1.385.743 1.846.743 1.846-.165-.787.22-1.466 1.706-1.439 0 1.467.936 1.711.936 1.711 0-1.25.88-1.711 1.65-1.711 0 1.032 1.21 1.412 1.21 1.412s-.302-1.195 1.046-1.412c3.467-.597.22-4.101 5.475-5.079 0 0-2.613-.38-2.613-1.793 0-1.276 2.366-2.172 3.191-2.172 1.678 3.15 3.494 3.177 3.962 3.204.743.815.495 3.559-.578 3.504-3.907-.217-3.769 2.146-3.329 2.635-.055.923.66 1.44.66 1.44 0-.979.936-1.25 2.147-1.196-.055 1.195.715 1.385.715 1.385.028-1.195.935-1.412 1.568-1.385-.055.842.798 1.087.798 1.087s-.082-1.06 1.046-1.06c2.173 0-.99-4.59 3.246-9.098-3.714 1.684-5.695-2.553-5.695-3.368 1.898 2.2 8.089 2.634 8.089-1.114 0-3.585-3.99-4.943-2.119-6.301 1.1-.788 3.22.815 2.009 2.471 1.596-.488 2.586-2.172 2.036-3.585zm-23.69.109c-1.402.815-2.338 1.847-3.603 2.281-.193.082-.358.082-.496.082v-7.008c.33.028 1.211.163 2.229.57 1.018.544 1.018 1.685-.275 1.956.798 1.522 3.604.788 4.237-.461.303-.027.55.489.825 1.005-.413.19-1.21.57-2.916 1.575zM49.58 25.965c-.165.218-.303.408-.44.598.357.57 1.018.95 1.76.869a1.795 1.795 0 0 0 1.651-1.983c0-.027 0-.081-.027-.108-.11.516-.716.95-1.513 1.032-.578.054-1.128-.109-1.431-.408z" fill="#CCC"/><path d="M26.962 21.755c0-.027.028-.081.056-.108-.028.027-.028.054-.056.108zm-.495 29.252h.88c-.11.054-.192.109-.302.163a.99.99 0 0 1 .275-.054c.44 0 .798.353.798.787a.793.793 0 0 1-.798.788c-.358 0-.66-.217-.743-.543v.081c.055.68.688 1.168 1.403 1.114.716-.054 1.239-.652 1.184-1.304-.028-.462-.358-.842-.77-1.005h.797v-1.548h-.468v-5.025a1.198 1.198 0 0 1-.632-1.303c.302 0 .577.081.742.19-.275.597.413 1.25.413 1.25-.137-.653.275-1.087.275-1.087.193-.299.495-.543.853-.706 1.018-.49 2.394-.38 2.807.434 2.613-.679 4.842-3.26 4.842-3.26l1.293 2.147c3.026 0 1.953-2.228 1.76-2.418.689 0 1.68.516 1.68 1.63 0 2.743-8.062 3.123-8.062 6.464 0 1.385 1.403 1.928 1.403 1.928 0 3.043-2.119 4.835-3.55 4.835-2.31 0-4.071-.462-4.071 2.01h.798c-.77.76-.055 1.847-.055 1.847-.165-.788.22-1.467 1.705-1.44h.908c-.577.57-.247 1.44.028 1.712 0-1.25.88-1.712 1.65-1.712h.661c-.193.19.11 1.005.523 1.413 0 0-.303-1.168 1.045-1.413 3.467-.597.22-4.1 5.475-5.079 0 0-2.613-.38-2.613-1.792 0-1.277 2.366-2.173 3.191-2.173.633-.082 1.238-.082 1.788.054.22 2.037 2.587 1.929 3.11 1.929 2.008 1.982-.523 5.16-.523 5.16-3.082 0-4.292.408-4.292 2.2h.578c-.33.326-.138 1.222.082 1.44 0-.978.936-1.25 2.146-1.195h.633c-.303.298-.248 1.059.082 1.385.028-1.195.908-1.413 1.569-1.385h.522c-.192.19 0 .814.276 1.086 0 0-.083-1.06 1.045-1.06 2.174 0-.99-4.59 3.247-9.098-3.715 1.684-5.696-2.553-5.696-3.368 1.899 2.2 8.09 2.635 8.09-1.114 0-3.041-2.862-4.454-2.614-5.649.082-.923.852-1.63 1.815-1.63 1.018 0 1.816.815 1.816 1.793a1.76 1.76 0 0 1-1.128 1.657c1.761-.652 2.724-2.309 2.201-3.721-.55-1.412-2.393-2.01-4.154-1.358a3.954 3.954 0 0 0-1.734 1.25c1.156-3.26 5.86-3.966 5.86-6.981 0-5.079-7.318-3.667-6.245 0v-.163c.193-2.064 3.935-2.499 3.935.217 0 2.309-4.788 3.585-4.788 6.682 0 3.178 3.55 3.992 3.55 7.333 0 .408-.22 2.119-2.56 2.119-2.283 0-3.356-1.25-3.989-2.907-1.155-2.2-.742-5.649-2.036-7.034l.11-1.412c1.156.706 4.182-.924 2.202-3.423 0 1.223-2.587 1.141-2.587-1.14 0-3.124 2.944-1.494 3.11-.815-.138-1.14-.193-1.847 0-2.499-1.596.516-1.734-.407-1.541-.76.22-.408.55-.87 1.155-.87.908 0 .826.326.798.788.33-.516.44-.896 1.238-1.657l-.027-.57.467.163.44-.706c-.467-.978-1.128-.516-1.623-1.739-.412-.108-5.667-.57-5.475-3.042-.468 0-1.733 1.576-.88 2.445h-1.1c-.579.081-1.954-.326-2.835 1.44 2.146-2.12 3.55 2.933-.412 2.933-.578 0-1.101-.245-1.129-.652-.385 1.711 2.091 2.254 2.091 2.254 0 .516-1.265 3.26-1.87 3.857.412.407.55 2.852-1.349 2.852.688-1.82-1.32-3.368-3.274-4.4a5.574 5.574 0 0 1-.99-.49c-1.21-.542-2.174-.841-2.174-.841v-1.412c.606-.3 1.266-.815 1.954-1.657.55-.652.825-1.467.743-2.363a.966.966 0 0 0-.055-.299c0-.027 0-.054-.028-.081-.027-.082-.027-.136-.055-.218 0-.027-.027-.054-.027-.108-.028-.082-.055-.136-.083-.218 0-.027-.027-.054-.027-.081-.028-.082-.083-.163-.138-.272-.027-.027-.027-.054-.055-.108l-.083-.163c-.027-.027-.055-.082-.082-.109-.028-.027-.055-.081-.083-.109-.027-.054-.055-.081-.11-.135l-.082-.082c-.083-.108-.193-.19-.275-.271l-.028-.028c-.055-.054-.11-.081-.165-.135-.027 0-.027-.028-.055-.028-.055-.054-.138-.081-.193-.135a3.672 3.672 0 0 0-2.228-.516c-.165.027-.358.054-.523.081-1.183.326-2.008 1.657-2.008 3.205 0 1.467.742 2.716 1.76 3.205h.055c-.495.271-.907.434-.99.434.028 0 .028.028.055.028h.028c.027 0 .055.027.055.027h.027c.028.027.055.027.11.054h.028c.027.027.055.027.11.055h.027c.083.027.193.054.303.108h.055c.055 0 .082.027.137.027h.055c.055 0 .11.027.166.027h.027c.385.028.825-.054.825-.054v.842c-.055 0-.66-.19-.825-.353h-.055c-.633.109-1.073.299-1.238.87-.193.57 0 .76.303 1.167-.248.435-.908.625-.055 1.602-.055.38.027.978.577 1.141.193.055.33.082.496.109.33 0 .825.271.825.95v6.383c.303.027.633.054.908.082V31.75c.33.027 1.21.136 2.229.57 0 0 .027 0 .027.028.083 0 .193.027.275.054.688.217 1.1.788.936 1.304-.166.516-.853.76-1.514.57.798 1.521 3.605.788 4.237-.462.303-.027.55.49.826 1.005 0 0 .715.272 2.448.272 0 0-7.043 4.454-9.079 4.454-.88 0-2.806 0-2.806.652-.523 0-1.293.896-1.293 1.412.495-.38.908-.38.908-.38.44 0 .66.136.66.136-.165.163-.853.924-.853 1.548.578-.57.853-.57.853-.57s.605-.082.825.136c-.137.136-.412.679-.412 1.303 0 0 .357-.706.825-.706v6.682c0 .217-.936.407-1.32.407l-.11.842zm.275-20.207c-.165 0-.247-.218-.247-.3 0-.08.055-.298.247-.325.413-.027 1.238.19 1.238.272-.027.081-.825.326-1.238.353zm-.275-1.114c-.247-.027-.33-.326-.302-.434 0-.11.137-.408.385-.408.578.054 1.678.435 1.678.543-.027.109-1.183.353-1.76.3zm-.082-1.412c-.248-.055-.275-.435-.248-.544.028-.108.22-.434.468-.352.605.162 1.706.787 1.678.923 0 .109-1.293.136-1.898-.027zm1.87-3.966c.11-.244.083-.597.028-.896h-.027c-.716 0-1.321-.57-1.321-1.304 0-.136 0-.244.055-.353.165-.543.66-.95 1.266-.95.715 0 1.32.57 1.32 1.303-.027.815-.605 1.576-1.32 2.2z" fill="#001489"/><path d="M48.01 25.45c.358.57 1.018.95 1.761.869a1.795 1.795 0 0 0 1.65-1.983c0-.027 0-.081-.027-.108-.11.516-.715.95-1.513 1.032-.605.054-1.128-.109-1.458-.408-.138.218-.303.408-.413.598z" fill="#F00"/><path d="M45.534 22.082l.633.027-.33.435c.027 0-.413.108-.303-.462zm-1.513 0h.908s-.027.733.633.788l-.138.244c0-.027-1.788-.489-1.403-1.032z" fill="#fff"/><path d="M28.311 28.301c.028-.108-1.073-.76-1.678-.923-.248-.054-.44.244-.468.353-.027.109 0 .489.248.543.578.163 1.87.136 1.898.027zm-.11 1.087c0-.109-1.1-.516-1.678-.544-.248-.027-.358.3-.385.408 0 .109.082.434.302.434.605.055 1.761-.19 1.761-.298zM26.963 26.1v.408c.165.163.743.353.825.353v-.842c-.027 0-.467.108-.825.081zm-.248 4.074c-.165 0-.247.245-.247.326 0 .082.082.3.247.3.413-.028 1.21-.272 1.21-.354.028-.081-.797-.272-1.21-.272zm-.852 11.082c-.688.869-.193 1.657-.193 1.657 0-.598.715-1.386.853-1.549.027 0-.22-.108-.66-.108zm2.2 1.847c-.11.543.166 1.06.633 1.303.11.055.22.082.33.11.055 0 .083.026.138.026h.055s-.688-.651-.413-1.25a1.58 1.58 0 0 0-.742-.19zm-1.265-17.845c-1.046-.489-1.76-1.738-1.76-3.205 0-1.548.825-2.879 1.953-3.313-1.706.38-2.917 1.874-2.752 3.558.11 1.44 1.183 2.58 2.559 2.96zm11.005-3.585c1.1-.217 1.486.76 1.486 1.114 0 1.303-1.046 1.847-1.898 1.847 3.961 0 2.558-5.08.412-2.96zm-2.669 11.272c1.899 0 1.761-2.445 1.349-2.852.605-.598 1.87-3.34 1.87-3.857 0 0-2.503-.543-2.09-2.254h-.028c-.688.706-.275 2.2.825 2.553 0 0-.412 1.63-1.458 2.662-1.018-.027-2.476-.163-3.742-.652 1.954 1.032 3.962 2.553 3.274 4.4zm-7.4-11.76c.495-.028.935.298.962.76a.856.856 0 0 1-.825.896c-.495.027-.935-.299-.963-.76 0 .706.578 1.303 1.32 1.303h.028c.055.326.083.652-.027.897.715-.598 1.293-1.386 1.293-2.2 0-.707-.578-1.304-1.32-1.304-.606 0-1.101.407-1.267.95.138-.271.44-.516.798-.543zm13.976-.924c-.853-.842.413-2.445.88-2.445-.522 0-2.723 1.44-1.98 2.445h1.1zM30.65 34.33c.688.217 1.375-.054 1.513-.57.165-.517-.275-1.114-.935-1.304a.987.987 0 0 0-.276-.054c.99.57.963 1.684-.302 1.928zm-1.954-7.116s.963.299 2.174.842c-.248-.136-.468-.326-.66-.489-.606-.57-1.101-.87-1.514-1.032v.679zm.358 12.358c2.036 0 9.08-4.454 9.08-4.454-1.734 0-2.45-.272-2.45-.272-.384.19-1.21.597-2.916 1.602-1.403.815-2.338 1.847-3.604 2.282a1.184 1.184 0 0 1-.495.081l-.908-.081v-6.383c0-.679-.495-.95-.825-.95v7.442c-.55.298-.826.651-.963.977 0 0-1.046-.135-1.018 1.793 0-.516.77-1.412 1.293-1.412 0-.625 1.953-.625 2.806-.625zm17.58 10.294c-.522 0-2.888.108-3.108-1.929a5.512 5.512 0 0 0-1.788-.054c1.678 3.15 3.494 3.178 3.962 3.205.742.815.495 3.558-.578 3.504-3.907-.218-3.77 2.145-3.33 2.634 0-1.765 1.211-2.2 4.293-2.2.055 0 2.558-3.178.55-5.16zm.799 7.605h-.523c-.055.842.798 1.086.798 1.086-.275-.244-.468-.869-.275-1.086zm-4.953 1.195c-.22-.218-.412-1.114-.082-1.44h-.578c-.055.924.66 1.44.66 1.44zm11.694-29.36c0-2.69-3.742-2.282-3.935-.19.165-1.522 2.669-1.74 2.669.162 0 1.956-4.677 3.26-4.677 6.573 0 3.667 3.714 3.992 3.329 7.36-.055.57-.688 1.331-1.596 1.331-1.953 0-2.999-.815-3.604-1.982.633 1.63 1.706 2.906 3.99 2.906 2.365 0 2.558-1.711 2.558-2.119 0-3.34-3.55-4.155-3.55-7.333.028-3.123 4.816-4.4 4.816-6.709zM26.523 42.342c0 1.032.44 1.44.44 1.44 0-.625.248-1.14.413-1.304-.248-.217-.853-.136-.853-.136zm27.1-5.703c-.963 0-1.733.706-1.816 1.63.055-.218.193-.435.496-.653 1.1-.787 3.219.815 2.008 2.472a1.813 1.813 0 0 0 1.128-1.657c0-1.005-.825-1.792-1.816-1.792zm-8.336 20.832h-.633c-.055 1.195.715 1.385.715 1.385-.357-.326-.412-1.06-.082-1.385zM27.32 51.116c-.11 0-.193.027-.276.054-.302.218-.495.57-.467.978.11.326.385.543.743.543.44 0 .797-.353.797-.787a.793.793 0 0 0-.797-.788zm4.457 5.785h-.908c0 1.467.935 1.711.935 1.711-.275-.244-.605-1.113-.027-1.71zm2.861-9.18c0-3.313 8.061-3.72 8.061-6.464 0-1.114-.962-1.63-1.678-1.63.193.19 1.238 2.417-1.76 2.417-2.724.897-8.667 6.003-4.54 7.768 0 .517-.083 4.319-2.559 4.02-3.577-.434-4.457 1.032-3.77 2.662 0-2.472 1.761-2.01 4.073-2.01 1.43 0 3.549-1.793 3.549-4.834.027 0-1.376-.544-1.376-1.929zm-6.878 2.037v-6.681c-.468 0-.825.706-.825.706v5.703-.027h-.496v.706c.413 0 1.32-.217 1.32-.407zm1.403 8.61s-.715-1.114.055-1.847h-.798c-.33 1.358.743 1.847.743 1.847zm4.98-1.44h-.66c0 1.033 1.21 1.413 1.21 1.413-.44-.408-.743-1.222-.55-1.413z" fill="#6672B8"/><path d="M73.873 45.222l-.055-.136-.055-.136c-.137-.462-.412-1.33-1.128-1.358-.192 0-.385.054-.578.163a.97.97 0 0 0-.11-.57c-.357-.598-1.265-.435-1.76-.354l-.138.028h-.165c-.495 0-1.403 0-1.65.651a.997.997 0 0 0-.028.57.856.856 0 0 0-.578-.053c-.688.163-.826 1.059-.88 1.52l-.028.136-.055.136c-.165.462-.44 1.304.11 1.765.137.11.33.19.55.19-.137.164-.22.354-.247.544-.055.706.77 1.086 1.21 1.304l.138.054.11.081c.385.3 1.128.815 1.733.435a.886.886 0 0 0 .358-.462c.11.19.247.326.44.38.66.272 1.293-.38 1.623-.733l.11-.108.11-.082c.413-.272 1.156-.815.963-1.494a.977.977 0 0 0-.33-.489c.22-.054.385-.136.523-.298.468-.462.028-1.25-.193-1.684z" fill="#fff"/><path d="M69.664 45.384c-2.449-2.39.055-2.091.412-2.118.358-.027 2.752-.76.77 2.01-.11-.028-.22-.082-.357-.082-.137-.407-.275-.842-.275-.842h-.082s-.056.435-.138.87l-.33.162zm.275 2.5c-.33.352-.715.732-.715.732l-.083-.054s.165-.489.303-.95c-.11-.11-.22-.218-.275-.354-3.192 1.087-.826 1.874-.523 2.065.302.19 2.118 1.846 1.596-1.386-.083 0-.193-.027-.303-.054zm-.963-1.196v-.109c-.413-.19-.853-.407-.853-.407l.028-.081h.935c.055-.136.138-.272.22-.38-2.063-2.717-2.09-.245-2.173.108-.083.353-1.156 2.58 1.87 1.06 0-.082 0-.137-.027-.191zm2.696.38c-.055.136-.11.272-.22.38l.468.87-.083.054s-.44-.326-.825-.598a1.57 1.57 0 0 1-.33.11c.082 3.285 1.54 1.33 1.816 1.085.302-.19 2.476-1.385-.826-1.9zm1.734-1.82c-.138-.325-.606-2.77-2.174.272.11.109.22.217.303.353.44-.081.908-.163.908-.163l.027.082s-.412.298-.77.57c0 .027.027.082.027.109v.163c3.247.95 1.816-1.06 1.679-1.386zm-3.11.517c-.22.027-.412.108-.55.298a.789.789 0 0 0-.192.598c.027.434.44.788.88.733.22-.027.413-.108.55-.299a.788.788 0 0 0 .193-.597.789.789 0 0 0-.88-.733z" fill="#F00"/><path d="M66.5 30.962a3.608 3.608 0 0 0 4.182 2.88c1.953-.354 3.274-2.2 2.916-4.129a3.608 3.608 0 0 0-4.182-2.879c-1.953.326-3.274 2.173-2.916 4.128z" fill="#fff"/><path d="M68.591 29.523c.028-.027.083-.054.165-.108.303-.19.88-.57.88-.57l.248-.164c.248-.163.495-.326.716-.434.082-.055.165-.082.247-.136.358-.163.688-.272 1.073-.299.303.218.55.49.77.788-.907.326-1.76.842-3.604 1.955-.11-.244-.467-.977-.495-1.032zm4.512.109c-.055-.299-.165-.543-.302-.815-.908.326-1.761.815-3.632 1.956.055.163.22.543.275.652 1.788-.435 3.164-1.114 3.66-1.793zm-2.724-1.575c-.632-.49-1.43-.49-2.008-.38-.33.19-.605.461-.825.733.605-.218 1.403-.326 2.118.081.248-.136.468-.299.715-.434zm2.752 2.96c.082-.326.082-.679.055-1.059-.716.788-2.256 1.385-3.632 1.711.11.272.413 1.005.44 1.032.055-.027.853-.217 1.21-.326a1.35 1.35 0 0 0 .304-.108c.22-.082.44-.19.66-.3a1.85 1.85 0 0 0 .302-.19c.248-.162.496-.434.66-.76zm-3.632 2.39c.303.055.633.055.963.028.248-.19.468-.408.605-.734-.302.082-.577.163-.853.245l-.302.081c0-.027-.193.217-.413.38zm-1.98-4.074c.082 0 .164 0 .274-.027.165 0 .358 0 .578.027l1.018-.652c-.743-.353-1.568-.108-2.118.136-.11.19-.193.408-.276.625.165-.054.33-.082.523-.109zm-.579.38c-.082.38-.082.761-.027 1.141a3.158 3.158 0 0 0 2.09 2.418c-.66-.788-1.457-2.037-1.485-3.667-.22.027-.412.081-.578.108zm4.595-2.118a3.135 3.135 0 0 0-2.063-.326 2.312 2.312 0 0 0-.413.109c.523 0 1.073.163 1.54.57.33-.19.606-.299.936-.353zm-3.742 2.01c.028 1.63.853 2.879 1.513 3.64a2.73 2.73 0 0 0 .413-.38l-.44-1.087-.11-.245s-.165-.434-.22-.57c-.028-.082-.083-.163-.11-.245a13.61 13.61 0 0 0-.495-1.059 1.311 1.311 0 0 0-.55-.054zm3.192 3.72c.275-.08.55-.19.77-.352.11-.19.22-.38.303-.625-.22.109-.44.19-.66.272-.083.271-.248.489-.413.706zm1.265-.76c.22-.217.386-.434.55-.706a3.814 3.814 0 0 1-.412.299 2.382 2.382 0 0 1-.138.407z" fill="#F00"/><path d="M11.694 45.846l-.056-.135-.027-.136c-.055-.489-.193-1.385-.88-1.521a.855.855 0 0 0-.578.054c.055-.217.055-.407-.028-.57-.247-.652-1.183-.652-1.65-.652h-.138l-.138-.027c-.495-.082-1.375-.245-1.76.353-.11.163-.138.353-.11.57a1.166 1.166 0 0 0-.578-.163c-.716.028-.99.897-1.128 1.358l-.055.136-.055.136c-.248.434-.66 1.222-.193 1.765.137.136.303.245.523.3a.976.976 0 0 0-.33.488c-.193.679.55 1.195.962 1.494l.11.081.11.109c.33.353.964 1.005 1.624.733a.975.975 0 0 0 .44-.38c.083.19.193.353.358.462.605.38 1.348-.163 1.733-.435l.11-.081.138-.055c.44-.217 1.265-.597 1.21-1.303-.027-.19-.11-.353-.247-.544.22-.027.412-.081.55-.19.55-.543.247-1.385.082-1.846z" fill="#fff"/><path d="M9.355 46.852c0-.055.027-.109.027-.163v-.109c.413-.19.853-.407.853-.407l-.027-.082h-.936a1.728 1.728 0 0 0-.22-.38c2.064-2.716 2.091-.244 2.174.109.11.326 1.155 2.553-1.871 1.032zm-1.486-1.657c.138-.407.275-.842.275-.842h.083s.055.435.137.87c.11.026.248.08.358.135 2.449-2.39-.055-2.091-.413-2.119-.357-.027-2.75-.76-.77 2.01.11 0 .22-.027.33-.054zm-1.265 1.44v-.163c0-.028.027-.082.027-.11-.385-.27-.77-.57-.77-.57l.027-.081.936.163a1.83 1.83 0 0 1 .302-.353c-1.54-3.015-2.008-.598-2.173-.272-.138.326-1.568 2.336 1.65 1.386zm2.586.624a1.745 1.745 0 0 1-.275.353c.137.435.302.95.302.95l-.082.055s-.385-.38-.716-.733c-.11.027-.22.054-.302.054-.523 3.26 1.293 1.575 1.596 1.385.33-.163 2.696-.977-.523-2.064zm-1.844.543c-.385.272-.825.598-.825.598l-.083-.054.468-.87a1.725 1.725 0 0 1-.22-.38c-3.301.516-1.128 1.711-.853 1.929.275.244 1.761 2.2 1.816-1.087-.082-.054-.193-.081-.303-.136zm1.294-1.765a.853.853 0 0 0-.55-.299c-.44-.027-.854.299-.881.733a.788.788 0 0 0 .192.598c.138.163.33.272.55.299.44.027.854-.299.881-.733a.97.97 0 0 0-.192-.598z" fill="#F00"/><path d="M8.584 26.834a3.608 3.608 0 0 0-4.182 2.88c-.357 1.928.963 3.774 2.917 4.128a3.608 3.608 0 0 0 4.182-2.88 3.542 3.542 0 0 0-2.917-4.128z" fill="#fff"/><path d="M8.914 30.528c-1.816-1.113-2.696-1.63-3.604-1.955.22-.3.468-.57.77-.788.385.027.716.136 1.073.299.083.027.165.081.248.136.22.135.44.271.715.434l.248.163c.027 0 .605.38.88.57.055.055.11.082.165.11-.027.08-.385.814-.495 1.031zm-.358.896c.028-.081.193-.488.276-.651-1.871-1.141-2.724-1.657-3.632-1.956a2.633 2.633 0 0 0-.303.815c.495.679 1.871 1.358 3.66 1.792zm-.192-2.906c.688-.407 1.486-.299 2.118-.081a2.661 2.661 0 0 0-.825-.734c-.578-.108-1.376-.135-2.009.38.193.11.44.272.716.435zm-2.807 3.287c.083.054.193.136.303.19.193.108.44.217.66.299.11.027.193.081.303.108.358.109 1.156.326 1.21.326 0-.027.303-.76.44-1.032-1.402-.353-2.916-.923-3.63-1.711-.056.353-.028.706.054 1.06.11.298.358.57.66.76zM8.061 33l-.302-.082a5.87 5.87 0 0 1-.853-.244c.137.299.385.543.605.733.33.055.633.027.963-.027A3.101 3.101 0 0 1 8.06 33zm2.917-3.585c-.056-.218-.165-.408-.276-.625-.55-.245-1.375-.489-2.118-.136l1.018.652c.22-.027.413-.027.578-.027a.95.95 0 0 1 .275.027c.22.054.385.081.523.109zm-.523.19c-.028 1.63-.798 2.879-1.486 3.666a3.159 3.159 0 0 0 2.091-2.417 2.64 2.64 0 0 0-.027-1.14c-.138-.028-.33-.082-.578-.11zM7.373 27.92c.468-.408 1.018-.543 1.541-.57-.137-.028-.275-.082-.413-.11a3.134 3.134 0 0 0-2.063.327c.33.081.633.19.935.353zm2.284 1.684a13.6 13.6 0 0 0-.495 1.059c-.028.081-.083.163-.11.244-.055.136-.22.57-.22.57l-.11.245-.44 1.087c.11.163.274.298.412.38.66-.733 1.486-1.983 1.513-3.64a3.437 3.437 0 0 1-.55.055zm-3.054 2.987a6.735 6.735 0 0 1-.66-.271c.082.244.192.462.302.624.248.163.496.272.77.353-.164-.19-.33-.407-.412-.706zm-.99-.434a2.274 2.274 0 0 1-.413-.299c.137.272.33.489.55.706a2.369 2.369 0 0 1-.138-.407z" fill="#F00"/><path d="M16.26 61.111c.276.245.909.843.909.843l-.688.706s-.633-.598-.908-.842a89.278 89.278 0 0 0-1.183 1.222l-1.046-.978 2.724-2.825.248-.271 2.036 1.901-.688.706s-.716-.679-.99-.95a2.647 2.647 0 0 1-.413.489zm5.338 3.151c0 .462-.165.95-.44 1.358a2.332 2.332 0 0 1-1.486.95c-.55.082-1.1-.026-1.568-.352-.468-.326-.77-.788-.853-1.331-.11-.57.055-1.195.413-1.711.385-.516.908-.87 1.485-.95a2.15 2.15 0 0 1 1.569.352c.468.326.77.815.853 1.358.027.082.027.19.027.326zm-1.65.489c.22-.299.687-1.06.192-1.412-.468-.326-1.018.271-1.293.651-.275.38-.66 1.087-.193 1.413.495.353 1.073-.326 1.293-.652zm5.695 3.15c-.303.571-.77.978-1.321 1.169-.523.163-1.1.135-1.596-.136a2.047 2.047 0 0 1-1.045-1.195A2.144 2.144 0 0 1 21.846 66c.578-1.14 1.843-1.575 2.944-1.032 1.045.543 1.43 1.82.853 2.934zm-1.321-.651c.22-.462.33-.87.248-1.141-.028-.136-.138-.217-.276-.272-.522-.271-.963.408-1.183.815-.137.245-.275.598-.275.897 0 .217.083.407.303.516.137.054.248.081.385.027.275-.055.578-.38.798-.842zm2.696-.734l-.192.57s.523.19.66.218l-1.1 3.096 1.348.462 1.1-3.096c.165.054.66.244.66.244l.33-.923-2.696-.924-.11.353zm6.713 2.526c0 .082 0 .163-.027.245a1.15 1.15 0 0 1-.413.679c.138.19.22.434.22.679 0 .081 0 .19-.027.271a1.393 1.393 0 0 1-.55.842c-.22.136-.606.3-1.21.163l-1.844-.38.825-3.802.083-.353 1.815.38c.853.163 1.128.787 1.128 1.276zm-1.623 1.494c0-.136-.055-.299-.275-.353 0 0-.11-.027-.192-.027-.055.271-.11.462-.165.733a.597.597 0 0 0 .165.027c.165.028.275.028.33 0a.402.402 0 0 0 .11-.244c.027-.027.027-.081.027-.136zm-.275-1.33c.055 0 .083.026.083.026.302.055.357-.081.385-.19v-.108c0-.055 0-.082-.028-.136a.613.613 0 0 0-.33-.163 4.157 4.157 0 0 1-.11.57zm4.127-.816l-1.98 3.993 1.127.082s.303-.625.44-.897c.248.027.468.027.716.055.082.271.302.95.302.95l1.514.109-1.679-5.133-.44.841zm4.43 3.178c-.028-.597-.138-3.232-.138-3.232l-.385.027-1.045.055.192 4.264 2.861-.109-.055-1.032c0-.027-1.018 0-1.43.027zm3.907-.407c-.083-.57-.496-3.205-.496-3.205l-.385.054-1.045.163.66 4.21 2.834-.434-.165-1.005c.027 0-.99.163-1.403.217zm8.199-2.852c0 .38-.22.679-.578.815a.65.65 0 0 1-.55 0c-.276-.109-.523-.408-.688-.788-.193-.462-.22-.842-.11-1.086.082-.19.247-.326.495-.435.275-.108.523 0 .853.19l.302.19.523-.814-.303-.19c-.577-.38-1.293-.462-1.898-.218a2.172 2.172 0 0 0-1.238 1.168c-.248.543-.248 1.168 0 1.766.44 1.113 1.733 1.656 2.861 1.222.798-.326 1.266-.924 1.321-1.766l.028-.38-1.046-.081.028.407zm3.301-1.14a398.616 398.616 0 0 1-1.596-2.825l-.33.19-.908.516 2.119 3.72 2.504-1.384-.496-.897c-.027-.027-.935.462-1.293.68zm2.779-5.759l-.303.218-.522.38 1.76 2.363c.083.108.083.19.083.217-.028.109-.138.245-.248.326a.677.677 0 0 1-.302.081c-.083 0-.165-.054-.22-.135l-1.734-2.336-1.155.842 1.733 2.308c.248.353.578.544.935.598.413.054.88-.082 1.321-.407.908-.652.88-1.521.495-2.037l-1.843-2.418zm5.64.055c0 .271-.11.651-.523 1.086l-1.348 1.304-2.999-3.07 1.321-1.276c.743-.706 1.54-.434 1.898-.054.22.217.303.461.33.733.33-.027.66.109.936.38.248.245.385.57.385.897zm-3.191-.951c.165.163.247.244.412.434l.055-.054c.11-.108.138-.163.138-.244 0-.082-.055-.136-.11-.19-.055-.109-.193-.218-.495.054zm1.128 1.113c.192.19.33.326.522.544l.11-.109c.11-.108.166-.217.166-.271 0-.082-.083-.163-.138-.245-.055-.081-.303-.271-.55-.027l-.11.108z" fill="#FBB700"/><path d="M15.848 61.139c.11.109.908.842.908.842l-.303.299s-.798-.734-.908-.842c-.11.108-1.183 1.222-1.183 1.222l-.633-.598 2.531-2.607.055-.054 1.623 1.52-.302.3s-.88-.815-.99-.951c-.083.136-.688.76-.799.869zm5.447 2.797c.028.11.028.218.028.3 0 .407-.138.814-.413 1.194-.33.462-.798.76-1.32.842a1.721 1.721 0 0 1-1.349-.326 1.75 1.75 0 0 1-.743-1.168c-.082-.516.055-1.032.386-1.493.33-.462.797-.76 1.32-.842.468-.082.963.027 1.348.326.386.298.66.706.743 1.168zm-.99-.814c-.688-.49-1.404.326-1.679.706-.275.38-.825 1.304-.137 1.793.715.488 1.403-.326 1.678-.707.275-.38.825-1.303.138-1.792zm5.09 4.671c-.248.49-.66.87-1.156 1.032a1.931 1.931 0 0 1-1.403-.108 1.768 1.768 0 0 1-.908-1.032c-.165-.49-.11-1.032.137-1.549.496-1.004 1.596-1.385 2.56-.923.935.489 1.292 1.575.77 2.58zm-1.761.598c.468-.136.798-.68.963-1.005.165-.299.412-.896.247-1.358a.65.65 0 0 0-.412-.435c-.77-.38-1.348.543-1.541.95-.22.408-.605 1.413.138 1.793a.935.935 0 0 0 .605.055zm3.631-1.766l-.11.3s.523.19.66.244c-.054.163-1.1 3.096-1.1 3.096l.826.272s1.045-2.934 1.1-3.097c.138.055.66.218.66.218l.138-.38-2.146-.734-.027.081zm6.191 2.418c0 .081 0 .135-.028.19-.082.353-.302.57-.632.679.275.19.44.462.44.76 0 .082 0 .136-.028.218a.946.946 0 0 1-.44.651c-.248.163-.578.218-.99.136l-1.569-.326.743-3.53.028-.082 1.54.326c.743.109.936.625.936.978zm-1.706-.76c-.027.135-.22.977-.247 1.14.137.027.357.081.357.081.22.055.605.055.716-.407 0-.054.027-.109.027-.163a.454.454 0 0 0-.083-.272c-.082-.135-.275-.244-.522-.298 0-.028-.165-.055-.248-.082zm-.33 1.547c-.028.163-.248 1.141-.275 1.277.137.027.44.081.44.081.22.055.413.028.55-.054.11-.081.193-.217.248-.434 0 0 .027-.082.027-.163 0-.218-.082-.544-.495-.625-.027 0-.357-.055-.495-.082zm4.897-1.52l1.321 4.073-.88-.054s-.276-.842-.303-.95c-.11 0-.99-.082-1.1-.082-.056.109-.44.896-.44.896l-.524-.027 1.789-3.612.137-.245zm-.77 2.552c.165.028.578.055.77.055-.055-.163-.22-.706-.302-.978l-.468.923zm4.567 1.005c0-.163-.137-3.232-.137-3.232h-.083l-.77.027.165 3.694 2.283-.081-.027-.462c0-.027-1.266.027-1.43.054zm3.962-.38c-.027-.163-.495-3.205-.495-3.205l-.083.027-.742.109.577 3.667 2.256-.353-.082-.462c-.028 0-1.266.19-1.43.217zm8.694-3.15c-.027.488-.302.896-.743 1.059a.952.952 0 0 1-.77 0c-.358-.136-.66-.49-.853-.95-.22-.517-.248-.979-.11-1.305.11-.271.33-.461.633-.57.413-.163.798.027 1.1.217l.083.055.22-.353-.082-.055a1.87 1.87 0 0 0-1.651-.19c-.495.19-.88.57-1.1 1.032-.22.49-.193 1.032 0 1.548A1.913 1.913 0 0 0 52 69.885c.715-.272 1.1-.788 1.156-1.521v-.082l-.468-.027.082.082zm2.917-.788a424.047 424.047 0 0 0-1.596-2.825l-.083.054-.66.38 1.843 3.233 2.009-1.114-.22-.407c-.028-.027-1.128.597-1.293.679zm2.834-5.731l-.083.054-.303.218 1.596 2.118a.68.68 0 0 1 .138.435c-.028.244-.275.434-.358.516a.634.634 0 0 1-.523.108.654.654 0 0 1-.412-.244l-1.569-2.091-.688.516 1.541 2.091c.22.272.468.435.743.489.468.081.908-.19 1.128-.353.743-.543.77-1.222.44-1.657l-1.65-2.2zm5.42-.353c0 .299-.165.597-.44.869l-1.156 1.114-2.614-2.662 1.128-1.087c.633-.624 1.266-.298 1.513-.054.166.19.276.38.276.625 0 .081-.028.19-.056.271.386-.135.743-.081 1.046.218.193.217.303.462.303.706zm-2.174-1.195c-.275-.299-.605-.272-.935.081 0 0-.11.109-.193.163.11.109.715.734.825.842l.276-.271c.11-.109.22-.245.22-.435a.63.63 0 0 0-.193-.38zm1.21 2.01a.89.89 0 0 0 .276-.49c0-.135-.083-.27-.22-.434-.028-.027-.495-.489-.936-.054 0 0-.247.217-.33.326.11.108.825.842.936.95.055-.108.275-.298.275-.298z" fill="#fff"/><path d="M21.818 13.662c.385 1.412 0 2.662-1.155 3.667-1.596 1.385-4.045 1.195-5.448-.38-1.513-1.712-1.376-4.102.33-5.596.88-.76 2.091-1.032 3.247-.733l.55.136-.358 1.494-.55-.109c-.715-.136-1.266-.163-1.678.217-.386.326-.578.68-.606 1.087-.027.543.248 1.222.853 1.901.523.57 1.156.95 1.734.978.385.027.715-.082 1.018-.353.522-.462.742-1.168.522-1.847l-.192-.57 1.568-.408.165.516zm4.127-8.338l-1.596.76s.908 1.874 1.21 2.526c-.467.218-.907.435-1.375.625-.302-.652-1.21-2.526-1.21-2.526l-2.119.978 3.22 6.763 2.118-.978s-.99-2.091-1.32-2.77c.467-.218.907-.408 1.375-.625.33.679 1.32 2.77 1.32 2.77l2.119-.977-3.22-6.79-.522.244zm7.181 4.183c-.11-.516-.22-1.005-.303-1.521l2.394-.49-.303-1.493s-1.733.353-2.393.489a21.999 21.999 0 0 0-.275-1.304c.688-.136 2.53-.516 2.53-.516l-.302-1.494-.55.109-4.292.842 1.486 7.333 4.87-.978-.303-1.493c.027.027-1.871.38-2.559.516zm6.933-6.492l-2.338-.054v.57l-.138 6.926 4.925.109.028-1.63s-1.899-.027-2.587-.054c0-.924.11-5.867.11-5.867zm7.594 3.776c-.605-.435-.798-.625-.715-.87.027-.135.165-.516.605-.407.275.054.523.19.633.76l.137.625 1.541-.516-.11-.489c-.193-.95-.99-1.738-2.008-2.01a2.715 2.715 0 0 0-2.064.272c-.55.326-.935.842-1.1 1.44-.386 1.52.66 2.281 1.348 2.77.715.489.88.706.77 1.113a.393.393 0 0 1-.248.3c-.137.08-.33.108-.467.08-.358-.08-.523-.27-.688-.733l-.193-.57-1.568.625.138.489c.302.95.99 1.548 2.118 1.82 1.293.325 2.834-.272 3.22-1.793.494-1.576-.606-2.39-1.349-2.906zm5.613 3.965c.605.299 2.173 1.086 2.173 1.086l.688-1.358s-1.596-.787-2.173-1.086c.22-.407.385-.76.605-1.195.605.299 2.311 1.168 2.311 1.168l.688-1.358-4.402-2.2-.248.489-3.164 6.165 4.457 2.227.688-1.358s-1.733-.869-2.339-1.168c.248-.488.468-.95.716-1.412zm10.042.082l-3.026 8.8-1.871-1.603s.44-1.25.578-1.684c-.303-.271-.77-.652-1.101-.923l-1.596.842-1.348-1.168 7.07-3.613 1.294-.652z" fill="#FBB700"/><path d="M21.46 13.77c.358 1.277 0 2.39-1.045 3.287-1.43 1.25-3.632 1.086-4.925-.353-1.376-1.548-1.265-3.721.275-5.052.77-.68 1.871-.923 2.917-.68l.192.055-.165.76-.192-.026c-.66-.136-1.404-.218-2.009.298-.468.38-.715.842-.743 1.358-.055.652.275 1.413.963 2.173.578.652 1.32 1.06 1.981 1.114.468.027.908-.109 1.293-.435.66-.57.88-1.412.633-2.227l-.055-.19.826-.217.055.135zm4.65-8.093l-1.265.57s1.073 2.227 1.21 2.526c-.275.136-1.788.815-2.036.95-.137-.298-1.21-2.525-1.21-2.525l-1.459.679 2.917 6.084 1.43-.68s-1.182-2.471-1.32-2.77c.275-.136 1.788-.815 2.036-.95.137.298 1.32 2.77 1.32 2.77l1.431-.68-2.889-6.056-.165.082zm6.714 4.291c-.055-.299-.413-1.956-.468-2.254.302-.055 2.393-.49 2.393-.49l-.165-.76s-2.09.408-2.393.49c-.055-.3-.358-1.74-.413-2.038.33-.054 2.531-.516 2.531-.516l-.165-.76-.192.027-3.907.787 1.348 6.6 4.127-.814-.165-.76c.055-.028-2.201.406-2.531.488zm6.85-6.6l-1.596-.027v.19l-.137 6.546 4.182.081.028-.869s-2.257-.054-2.587-.054c-.027-.353.11-5.867.11-5.867zm7.952 1.765c.495.136.797.462.907 1.06l.056.217.825-.272-.028-.163c-.165-.814-.853-1.493-1.733-1.71-.633-.164-1.265-.082-1.76.217a1.866 1.866 0 0 0-.909 1.222c-.33 1.276.523 1.874 1.21 2.363.689.489 1.101.815.936 1.52a.899.899 0 0 1-.412.544.9.9 0 0 1-.743.109c-.495-.136-.77-.38-.963-.978l-.055-.19-.853.353.055.163c.248.815.853 1.33 1.87 1.575 1.101.272 2.422-.217 2.752-1.521.33-1.358-.55-2.01-1.293-2.526-.633-.462-.99-.76-.88-1.25.082-.488.44-.868 1.018-.733zm6.768 2.58c.303.136 2.311 1.141 2.311 1.141l.358-.706-3.742-1.874-.083.163-2.999 5.84 3.77 1.874.357-.707s-2.063-1.032-2.338-1.167c.137-.272.908-1.793 1.045-2.037.275.135 2.174 1.086 2.174 1.086l.357-.706-2.173-1.087c.165-.217.825-1.548.963-1.82zm8.254 3.885l-2.531 7.387-1.238-1.059s.522-1.494.577-1.684c-.165-.136-1.32-1.14-1.485-1.277a171.9 171.9 0 0 1-1.596.842l-.743-.624 6.576-3.368.44-.217zm-2.917 3.83c.11-.327.413-1.169.578-1.658-.495.245-1.265.652-1.596.815.276.19.77.625 1.018.842z" fill="#fff"/></svg>